<?xml version="1.0" encoding="UTF-8" standalone="no"?>
<svg
   xmlns:dc="http://purl.org/dc/elements/1.1/"
   xmlns:cc="http://creativecommons.org/ns#"
   xmlns:rdf="http://www.w3.org/1999/02/22-rdf-syntax-ns#"
   xmlns:svg="http://www.w3.org/2000/svg"
   xmlns="http://www.w3.org/2000/svg"
   xmlns:sodipodi="http://sodipodi.sourceforge.net/DTD/sodipodi-0.dtd"
   xmlns:inkscape="http://www.inkscape.org/namespaces/inkscape"
   version="1.1"
   id="Cross"
   x="0px"
   y="0px"
   viewBox="0 0 9.4005003 10.4005"
   enable-background="new 0 0 20 20"
   xml:space="preserve"
   sodipodi:docname="cross.svg"
   width="9.4005003"
   height="10.4005"
   inkscape:version="1.0.2 (e86c8708, 2021-01-15)"><metadata
   id="metadata17"><rdf:RDF><cc:Work
       rdf:about=""><dc:format>image/svg+xml</dc:format><dc:type
         rdf:resource="http://purl.org/dc/dcmitype/StillImage" /></cc:Work></rdf:RDF></metadata><defs
   id="defs15" /><sodipodi:namedview
   pagecolor="#ffffff"
   bordercolor="#666666"
   borderopacity="1"
   objecttolerance="10"
   gridtolerance="10"
   guidetolerance="10"
   inkscape:pageopacity="0"
   inkscape:pageshadow="2"
   inkscape:window-width="1440"
   inkscape:window-height="847"
   id="namedview13"
   showgrid="false"
   inkscape:zoom="18.717808"
   inkscape:cx="1.8598238"
   inkscape:cy="3.170984"
   inkscape:window-x="0"
   inkscape:window-y="25"
   inkscape:window-maximized="0"
   inkscape:current-layer="Cross" />
<path
   fill="#ffffff"
   d="m 9.04875,10.04875 c -0.469,0.469 -1.229,0.469 -1.697,0 l -2.651,-3.03 -2.651,3.029 c -0.469,0.469 -1.229,0.469 -1.697,0 -0.469,-0.469 -0.469,-1.229 0,-1.697 l 2.758,-3.15 -2.759,-3.152 c -0.469,-0.469 -0.469,-1.228 0,-1.697 0.469,-0.469 1.228,-0.469 1.697,0 l 2.652,3.031 2.651,-3.031 c 0.469,-0.469 1.228,-0.469 1.697,0 0.469,0.469 0.469,1.229 0,1.697 l -2.758,3.152 2.758,3.15 c 0.469,0.469 0.469,1.229 0,1.698 z"
   id="path10" />
</svg>
