<?xml version="1.0" encoding="UTF-8" standalone="no"?>
<svg
   xmlns:dc="http://purl.org/dc/elements/1.1/"
   xmlns:cc="http://creativecommons.org/ns#"
   xmlns:rdf="http://www.w3.org/1999/02/22-rdf-syntax-ns#"
   xmlns:svg="http://www.w3.org/2000/svg"
   xmlns="http://www.w3.org/2000/svg"
   xmlns:sodipodi="http://sodipodi.sourceforge.net/DTD/sodipodi-0.dtd"
   xmlns:inkscape="http://www.inkscape.org/namespaces/inkscape"
   id="Icon_Light_Message"
   data-name="Icon / Light / Message"
   width="20.734549"
   height="18.608019"
   viewBox="0 0 20.734549 18.608019"
   version="1.1"
   sodipodi:docname="icon_mail.svg"
   inkscape:version="1.0.2 (e86c8708, 2021-01-15)">
  <metadata
     id="metadata4376">
    <rdf:RDF>
      <cc:Work
         rdf:about="">
        <dc:format>image/svg+xml</dc:format>
        <dc:type
           rdf:resource="http://purl.org/dc/dcmitype/StillImage" />
      </cc:Work>
    </rdf:RDF>
  </metadata>
  <defs
     id="defs4374" />
  <sodipodi:namedview
     pagecolor="#ffffff"
     bordercolor="#666666"
     borderopacity="1"
     objecttolerance="10"
     gridtolerance="10"
     guidetolerance="10"
     inkscape:pageopacity="0"
     inkscape:pageshadow="2"
     inkscape:window-width="1390"
     inkscape:window-height="839"
     id="namedview4372"
     showgrid="false"
     inkscape:zoom="15.40421"
     inkscape:cx="6.0825348"
     inkscape:cy="3.7446362"
     inkscape:window-x="50"
     inkscape:window-y="25"
     inkscape:window-maximized="0"
     inkscape:current-layer="Icon_Light_Message" />
  <g
     id="Message"
     transform="translate(0.75,0.75)">
    <path
       id="Path_445"
       d="M 11.314,0 7.048,3.434 a 2.223,2.223 0 0 1 -2.746,0 L 0,0"
       transform="translate(3.954,5.561)"
       fill="none"
       stroke="#ffffff"
       stroke-linecap="round"
       stroke-linejoin="round"
       stroke-miterlimit="10"
       stroke-width="1.5" />
    <path
       id="Rectangle_511"
       d="m 4.888,0 h 9.428 a 4.957,4.957 0 0 1 3.584,1.59 5.017,5.017 0 0 1 1.326,3.7 v 6.528 a 5.017,5.017 0 0 1 -1.326,3.7 4.957,4.957 0 0 1 -3.58,1.59 H 4.888 C 1.968,17.116 0,14.741 0,11.822 V 5.294 C 0,2.375 1.968,0 4.888,0 Z"
       fill="none"
       stroke="#ffffff"
       stroke-linecap="round"
       stroke-linejoin="round"
       stroke-miterlimit="10"
       stroke-width="1.5" />
  </g>
</svg>
