<?xml version="1.0" encoding="utf-8"?>
<!-- Generator: Adobe Illustrator 16.0.4, SVG Export Plug-In . SVG Version: 6.00 Build 0)  -->
<!DOCTYPE svg PUBLIC "-//W3C//DTD SVG 1.1//EN" "http://www.w3.org/Graphics/SVG/1.1/DTD/svg11.dtd">
<svg version="1.1" id="Layer_1" xmlns="http://www.w3.org/2000/svg" xmlns:xlink="http://www.w3.org/1999/xlink" x="0px" y="0px"
	 width="1080px" height="1080px" viewBox="420 0 1080 1080" enable-background="new 420 0 1080 1080" xml:space="preserve">
<rect x="468.5" y="60.5" fill="#0077B5" width="976" height="976"/>
<title>LinkedIn icon</title>
<path fill="#FFFFFF" d="M1340.115,920.34h-159.93V669.735c0-59.761-1.216-136.665-83.341-136.665
	c-83.385,0-96.12,65.024-96.12,132.255V920.34h-159.93V405h153.63v70.245h2.07c21.465-40.5,73.665-83.25,151.649-83.25
	c162.045,0,192.016,106.649,192.016,245.475v282.87H1340.115z M660.165,334.485c-51.479,0-92.835-41.67-92.835-92.925
	c0-51.21,41.4-92.835,92.835-92.835c51.3,0,92.88,41.625,92.88,92.835C753.045,292.815,711.42,334.485,660.165,334.485z
	 M740.355,920.34H579.975V405h160.381V920.34z M1420.125,0h-920.43C455.64,0,420,34.83,420,77.805v924.39
	c0,43.02,35.64,77.805,79.695,77.805h920.295c44.01,0,80.01-34.785,80.01-77.805V77.805C1500,34.83,1464,0,1419.99,0H1420.125z"/>
</svg>
