<?xml version="1.0" encoding="UTF-8" standalone="no"?>
<svg
   xmlns:dc="http://purl.org/dc/elements/1.1/"
   xmlns:cc="http://creativecommons.org/ns#"
   xmlns:rdf="http://www.w3.org/1999/02/22-rdf-syntax-ns#"
   xmlns:svg="http://www.w3.org/2000/svg"
   xmlns="http://www.w3.org/2000/svg"
   xmlns:sodipodi="http://sodipodi.sourceforge.net/DTD/sodipodi-0.dtd"
   xmlns:inkscape="http://www.inkscape.org/namespaces/inkscape"
   version="1.1"
   id="Wordmark"
   x="0px"
   y="0px"
   viewBox="0 0 1106.95 199.76706"
   xml:space="preserve"
   sodipodi:docname="The-Brag.svg"
   width="1106.95"
   height="199.76706"
   inkscape:version="1.0.2 (e86c8708, 2021-01-15)"><metadata
   id="metadata49"><rdf:RDF><cc:Work
       rdf:about=""><dc:format>image/svg+xml</dc:format><dc:type
         rdf:resource="http://purl.org/dc/dcmitype/StillImage" /><dc:title></dc:title></cc:Work></rdf:RDF></metadata><defs
   id="defs47" /><sodipodi:namedview
   pagecolor="#ffffff"
   bordercolor="#666666"
   borderopacity="1"
   objecttolerance="10"
   gridtolerance="10"
   guidetolerance="10"
   inkscape:pageopacity="0"
   inkscape:pageshadow="2"
   inkscape:window-width="1341"
   inkscape:window-height="837"
   id="namedview45"
   showgrid="false"
   fit-margin-top="0"
   fit-margin-left="0"
   fit-margin-right="0"
   fit-margin-bottom="0"
   inkscape:zoom="0.41720933"
   inkscape:cx="396.46082"
   inkscape:cy="-53.583948"
   inkscape:window-x="0"
   inkscape:window-y="25"
   inkscape:window-maximized="0"
   inkscape:current-layer="Wordmark" />
<style
   type="text/css"
   id="style10">
	.st0{fill:#0F0C0C;}
</style>
<g
   id="g42"
   transform="translate(-406.53,-440.11)">
	<g
   id="g24">
		<g
   id="g14">
			<polygon
   class="st0"
   points="562.75,545.63 562.75,530.62 540.4,530.62 540.4,462.64 566.39,462.64 566.39,447.63 525.4,447.65 525.4,630.15 566.95,630.15 566.95,615.14 540.4,615.14 540.4,545.63 "
   id="polygon12" />
		</g>
		<g
   id="g18">
			<polygon
   class="st0"
   points="406.53,462.43 423.26,462.43 423.26,630.15 438.27,630.15 438.27,462.43 455,462.43 455,447.42 406.53,447.42 "
   id="polygon16" />
		</g>
		<g
   id="g22">
			<polygon
   class="st0"
   points="480.4,447.42 465.39,447.42 465.39,630.15 480.4,630.15 480.4,541.73 494.82,541.73 494.82,630.15 509.82,630.15 509.82,447.42 494.82,447.42 494.82,526.73 480.4,526.73 "
   id="polygon20" />
		</g>
	</g>
	<g
   id="g28">
		<path
   class="st0"
   d="m 1054.61,629.48 c -7.96,-4.62 -8.94,-36.93 -8.94,-36.93 v -9.97 c 0,-16.83 -12.51,-30.85 -28.69,-33.3 18.69,-6.67 32.17,-24.58 32.17,-45.5 v -8.04 c 0,-26.56 -21.73,-48.29 -48.29,-48.29 l -147.08,-0.42 c 0,0 0,80.18 0,99.54 0,56.88 -8.44,84.51 -8.44,84.51 h 84.98 v -63 h 21.21 c 15.81,0 28.75,12.94 28.75,28.75 0,0.44 -0.05,0.88 -0.07,1.31 h 0.07 v 31.88 h 57.82 16.37 c 0.29,0.01 0.4,-0.38 0.14,-0.54 z M 972.25,529.38 H 930.32 V 506.9 h 41.93 c 6.18,0 11.24,5.06 11.24,11.24 0,6.18 -5.06,11.24 -11.24,11.24 z"
   id="path26" />
	</g>
	<g
   id="g32">
		<path
   class="st0"
   d="m 840.14,569.41 c -7.12,-15.3 -24.84,-26.82 -40.66,-31.35 -4.8,-1.37 -8.24,-2.9 -14.84,-4.86 12,-3.75 24.74,-6.75 34.42,-15.28 13.94,-12.28 15.69,-37.76 2.94,-51.51 -12.02,-12.97 -27.62,-18.77 -44.56,-18.96 -53.27,-0.61 -193.83,-0.41 -193.83,-0.41 v 68.08 l 29.94,-0.13 c -5.36,6.15 -5.55,16.3 -5.51,24.38 0.16,30.08 -3.83,61.04 -9.79,91.51 4.13,0.46 7.29,-0.01 10.09,-0.01 17.08,0 34.15,0.01 51.23,0.01 0.09,-0.01 32.03,-4.94 32.03,-42.28 v 42.27 c 30.96,-0.01 61.93,-0.05 92.89,-0.2 21.65,-0.1 47.66,-13.42 56.23,-34.38 3.98,-9.7 3.18,-18.82 -0.58,-26.88 z M 694.99,524.22 v -13.57 -7.41 h 42.68 c 6.18,0 11.24,5.06 11.24,11.24 0,6.18 -5.06,11.24 -11.24,11.24 h -42.68 z m 63.7,35.42 c 0,6.18 -5.06,11.24 -11.24,11.24 h -52.47 v -4.97 -17.51 h 52.47 0.59 c 1.59,0 3.07,0.43 4.35,1.17 3.72,1.84 6.3,5.66 6.3,10.07 z"
   id="path30" />
	</g>
	<g
   id="g36">
		<path
   class="st0"
   d="m 1365.24,639.85 c 0,0 57.9,2.48 78.23,-40.05 0,0 -2.8,17.51 -5,30.55 0.04,-0.02 0.09,-0.04 0.13,-0.06 l -0.69,0.79 h 75.57 c 0,0 -4.12,-26.32 -4.12,-52.81 0,-26.49 4.12,-49.05 4.12,-49.05 l -66.85,-1.17 54.02,-30.15 v 0 c -24.32,-36.81 -41.27,-57.79 -118.55,-57.79 v 0 c -72.05,0 -111.81,46.79 -111.81,96.21 v 0 c 0,72.26 39.67,103.53 94.95,103.53 m 34.74,-54.17 c -18.96,0 -31.35,-16.64 -31.35,-37.16 0,-20.53 12.39,-37.16 31.35,-37.16 16.03,0 27.71,3.1 30.93,16.47 l -30.93,-0.56 4.59,45.98 27.82,0.71 c -3.7,6.99 -12.67,11.72 -32.41,11.72 z"
   id="path34" />
	</g>
	<g
   id="g40">
		<path
   class="st0"
   d="m 1233.53,452.5 c -1.49,-7.25 -4.96,-6.17 -12.36,-6.28 l -122.27,0.18 -37.71,183.62 h 75.68 l 3.56,-19.07 h 37.26 14.61 10.86 c 0,0 -10.12,3.97 -8.82,10.89 l 1.53,8.17 h 75.68 z m -83.16,111.71 16.01,-78.5 16.01,78.5 z"
   id="path38" />
	</g>
</g>
</svg>
