<?xml version="1.0" encoding="UTF-8" standalone="no"?>
<svg
   xmlns:dc="http://purl.org/dc/elements/1.1/"
   xmlns:cc="http://creativecommons.org/ns#"
   xmlns:rdf="http://www.w3.org/1999/02/22-rdf-syntax-ns#"
   xmlns:svg="http://www.w3.org/2000/svg"
   xmlns="http://www.w3.org/2000/svg"
   xmlns:sodipodi="http://sodipodi.sourceforge.net/DTD/sodipodi-0.dtd"
   xmlns:inkscape="http://www.inkscape.org/namespaces/inkscape"
   width="300.43677"
   height="46.429749"
   viewBox="0 0 300.43677 46.429748"
   version="1.1"
   id="svg7382"
   sodipodi:docname="The-Brag_combo.svg"
   inkscape:version="1.0.2 (e86c8708, 2021-01-15)"
   inkscape:export-filename="/Users/sachinp/Sites/_repos/thebrag.com/themes/tbm-brag/images/The-Brag_combo-300px.png"
   inkscape:export-xdpi="95.860435"
   inkscape:export-ydpi="95.860435">
  <metadata
     id="metadata7388">
    <rdf:RDF>
      <cc:Work
         rdf:about="">
        <dc:format>image/svg+xml</dc:format>
        <dc:type
           rdf:resource="http://purl.org/dc/dcmitype/StillImage" />
        <dc:title></dc:title>
      </cc:Work>
    </rdf:RDF>
  </metadata>
  <defs
     id="defs7386" />
  <sodipodi:namedview
     pagecolor="#ffffff"
     bordercolor="#666666"
     borderopacity="1"
     objecttolerance="10"
     gridtolerance="10"
     guidetolerance="10"
     inkscape:pageopacity="0"
     inkscape:pageshadow="2"
     inkscape:window-width="1390"
     inkscape:window-height="847"
     id="namedview7384"
     showgrid="false"
     inkscape:zoom="1.8208907"
     inkscape:cx="119.94714"
     inkscape:cy="-16.735465"
     inkscape:window-x="50"
     inkscape:window-y="25"
     inkscape:window-maximized="0"
     inkscape:current-layer="Group_479" />
  <g
     id="Group_479"
     data-name="Group 479"
     transform="translate(-641.89124,-61.000126)">
    <g
       id="Group_26"
       data-name="Group 26"
       transform="translate(-59.398,30.993)">
      <g
         id="Group_24"
         data-name="Group 24"
         transform="translate(761.07,33.007)"
         style="fill:#181715;fill-opacity:1">
        <g
           id="Group_23"
           data-name="Group 23"
           transform="translate(0,1.588)"
           style="fill:#181715;fill-opacity:1">
          <path
             id="Path_66"
             data-name="Path 66"
             d="M 215.375,519.484 V 504.37 h 4.859 v -3.262 h -4.859 v -14.781 h 5.649 v -3.262 h -8.911 v 39.677 h 9.033 v -3.262 z"
             transform="translate(-186.27,-483.02)"
             fill="#fff"
             style="fill:#181715;fill-opacity:1" />
          <path
             id="Path_67"
             data-name="Path 67"
             d="m 149.382,482.936 h -10.539 v 3.264 h 3.638 v 36.464 h 3.262 V 486.2 h 3.638 v -3.262 0 z"
             transform="translate(-138.843,-482.936)"
             fill="#fff"
             style="fill:#181715;fill-opacity:1" />
          <path
             id="Path_68"
             data-name="Path 68"
             d="m 181.524,500.179 h -3.136 v -17.243 h -3.262 v 39.726 h 3.262 V 503.44 h 3.136 v 19.222 h 3.262 v -39.726 h -3.262 z"
             transform="translate(-162.329,-482.936)"
             fill="#fff"
             style="fill:#181715;fill-opacity:1" />
        </g>
        <path
           id="Path_69"
           data-name="Path 69"
           d="m 454.82,522.364 c -1.73,-1 -1.943,-8.029 -1.943,-8.029 v -2.167 a 7.352,7.352 0 0 0 -6.238,-7.24 10.537,10.537 0 0 0 6.994,-9.891 v -1.747 a 10.529,10.529 0 0 0 -10.5,-10.5 l -31.976,-0.092 v 21.64 c 0,12.367 -1.836,18.373 -1.836,18.373 H 427.8 v -13.7 h 4.611 a 6.268,6.268 0 0 1 6.25,6.25 c 0,0.1 -0.01,0.19 -0.014,0.286 h 0.014 v 6.932 h 16.128 a 0.064,0.064 0 0 0 0.031,-0.115 z M 436.914,500.6 H 427.8 v -4.887 h 9.116 a 2.444,2.444 0 1 1 0,4.887 z"
           transform="translate(-313.922,-481.195)"
           fill="#fff"
           style="fill:#181715;fill-opacity:1" />
        <path
           id="Path_70"
           data-name="Path 70"
           d="m 303.773,509.293 c -1.548,-3.326 -5.4,-5.83 -8.84,-6.816 -1.043,-0.3 -1.791,-0.63 -3.226,-1.057 2.609,-0.815 5.378,-1.468 7.482,-3.321 3.032,-2.67 3.411,-8.209 0.639,-11.2 a 12.984,12.984 0 0 0 -9.687,-4.122 c -11.582,-0.132 -42.139,-0.09 -42.139,-0.09 v 14.8 l 6.509,-0.029 c -1.165,1.336 -1.207,3.543 -1.2,5.3 a 101.9,101.9 0 0 1 -2.128,19.895 15.982,15.982 0 0 0 2.194,0 h 11.138 c 0.02,0 6.963,-1.075 6.963,-9.192 v 9.189 q 10.1,0 20.2,-0.043 c 4.707,-0.022 10.361,-2.918 12.225,-7.475 a 7.063,7.063 0 0 0 -0.13,-5.839 z m -31.558,-9.825 v -4.562 h 9.278 a 2.444,2.444 0 1 1 0,4.887 h -9.278 z m 13.85,7.7 a 2.451,2.451 0 0 1 -2.444,2.444 h -11.407 v -4.887 h 11.534 a 1.891,1.891 0 0 1 0.946,0.254 2.449,2.449 0 0 1 1.369,2.19 z"
           transform="translate(-209.501,-481.184)"
           fill="#fff"
           style="fill:#181715;fill-opacity:1" />
        <path
           id="Path_71"
           data-name="Path 71"
           d="m 691.9,521.859 c 0,0 12.589,0.539 17.008,-8.708 0,0 -0.608,3.806 -1.088,6.642 l 0.029,-0.012 -0.15,0.173 h 16.429 a 85.062,85.062 0 0 1 -0.9,-11.481 66.57,66.57 0 0 1 0.9,-10.665 L 709.595,497.554 721.341,491 v 0 c -5.287,-8 -8.973,-12.564 -25.773,-12.564 v 0 c -15.665,0 -24.307,10.172 -24.307,20.916 v 0 c 0,15.709 8.625,22.508 20.642,22.508 m 7.554,-11.778 c -4.121,0 -6.815,-3.618 -6.815,-8.08 0,-4.462 2.694,-8.08 6.815,-8.08 3.486,0 6.024,0.674 6.724,3.582 l -6.724,-0.122 1,10 6.048,0.154 c -0.805,1.516 -2.758,2.545 -7.049,2.545 z"
           transform="translate(-483.472,-478.435)"
           fill="#fff"
           style="fill:#181715;fill-opacity:1" />
        <path
           id="Path_72"
           data-name="Path 72"
           d="m 579.846,483.559 c -0.324,-1.577 -1.078,-1.342 -2.688,-1.365 l -26.582,0.04 -8.2,39.922 h 16.454 l 0.774,-4.145 h 13.638 c 0,0 -2.2,0.863 -1.918,2.368 l 0.331,1.777 h 16.454 z m -18.081,24.286 3.481,-17.067 3.481,17.067 z"
           transform="translate(-400.048,-480.868)"
           fill="#fff"
           style="fill:#181715;fill-opacity:1" />
      </g>
    </g>
    <g
       id="Group_29"
       data-name="Group 29"
       transform="translate(641.891,61)">
      <path
         id="Subtraction_1"
         data-name="Subtraction 1"
         d="m 5165.663,67.8 a 81.9,81.9 0 0 1 -12.505,-0.974 13.085,13.085 0 0 1 -6.562,-3.568 11.625,11.625 0 0 1 -3.613,-6.287 87.815,87.815 0 0 1 0,-24.714 11.625,11.625 0 0 1 3.613,-6.287 13.085,13.085 0 0 1 6.562,-3.568 80.854,80.854 0 0 1 25.01,0 13.084,13.084 0 0 1 6.563,3.569 11.633,11.633 0 0 1 3.614,6.286 87.815,87.815 0 0 1 0,24.714 11.632,11.632 0 0 1 -3.614,6.287 13.085,13.085 0 0 1 -6.562,3.568 81.9,81.9 0 0 1 -12.506,0.974 z m -13.037,-26.326 v 0 a 4.836,4.836 0 0 0 -0.717,3.18 60.721,60.721 0 0 1 -1.276,11.938 4.581,4.581 0 0 0 0.5,0.026 c 0.164,0 0.313,-0.007 0.457,-0.014 0.126,-0.006 0.245,-0.012 0.36,-0.012 h 6.685 a 5.311,5.311 0 0 0 2.094,-0.932 5.368,5.368 0 0 0 2.084,-4.584 v 5.514 c 3.346,0 7.748,-0.006 12.119,-0.026 a 8.975,8.975 0 0 0 4.308,-1.223 6.985,6.985 0 0 0 3.028,-3.263 4.228,4.228 0 0 0 -0.078,-3.507 8.689,8.689 0 0 0 -5.3,-4.09 c -0.3,-0.086 -0.562,-0.178 -0.839,-0.275 h -0.013 c -0.3,-0.1 -0.64,-0.223 -1.083,-0.355 0.163,-0.051 0.326,-0.1 0.49,-0.15 l 0.133,-0.04 a 9.98,9.98 0 0 0 3.867,-1.8 4.76,4.76 0 0 0 1.5,-3.344 4.617,4.617 0 0 0 -1.117,-3.376 7.833,7.833 0 0 0 -5.814,-2.473 c -3.306,-0.038 -6.836,-0.055 -11.449,-0.055 -1.956,0 -3.939,0 -5.857,0.006 h -3.546 l -4.435,-0.01 v 8.882 l 3.9,-0.017 z m 18.83,7 h -10 v -3.3 h 10 a 1.651,1.651 0 0 1 0,3.3 z m -1.52,-6.612 h -8.481 V 39.3 h 8.481 a 1.28,1.28 0 1 1 0,2.559 z"
         transform="translate(-5142.109,-21.429)"
         fill="#b98d5b" />
    </g>
  </g>
</svg>
