<?xml version="1.0" encoding="UTF-8" standalone="no"?>
<svg
   xmlns:dc="http://purl.org/dc/elements/1.1/"
   xmlns:cc="http://creativecommons.org/ns#"
   xmlns:rdf="http://www.w3.org/1999/02/22-rdf-syntax-ns#"
   xmlns:svg="http://www.w3.org/2000/svg"
   xmlns="http://www.w3.org/2000/svg"
   xmlns:sodipodi="http://sodipodi.sourceforge.net/DTD/sodipodi-0.dtd"
   xmlns:inkscape="http://www.inkscape.org/namespaces/inkscape"
   version="1.1"
   id="Wordmark"
   x="0px"
   y="0px"
   viewBox="0 0 2142.52 199.76706"
   xml:space="preserve"
   sodipodi:docname="The-Brag-Media-light.svg"
   width="2142.52"
   height="199.76706"
   inkscape:version="1.0.2 (e86c8708, 2021-01-15)"><metadata
   id="metadata63"><rdf:RDF><cc:Work
       rdf:about=""><dc:format>image/svg+xml</dc:format><dc:type
         rdf:resource="http://purl.org/dc/dcmitype/StillImage" /></cc:Work></rdf:RDF></metadata><defs
   id="defs61" /><sodipodi:namedview
   pagecolor="#ffffff"
   bordercolor="#666666"
   borderopacity="1"
   objecttolerance="10"
   gridtolerance="10"
   guidetolerance="10"
   inkscape:pageopacity="0"
   inkscape:pageshadow="2"
   inkscape:window-width="1709"
   inkscape:window-height="975"
   id="namedview59"
   showgrid="false"
   inkscape:zoom="0.4338472"
   inkscape:cx="1069.14"
   inkscape:cy="99.89"
   inkscape:window-x="61"
   inkscape:window-y="25"
   inkscape:window-maximized="0"
   inkscape:current-layer="Wordmark" />
<style
   type="text/css"
   id="style10">
	.st0{fill:#0F0C0C;}
</style>
<g
   id="g56"
   transform="translate(-195.13,-440.11)">
	<g
   id="g42">
		<g
   id="g24">
			<g
   id="g14">
				<polygon
   class="st0"
   points="351.36,545.63 351.36,530.62 329.01,530.62 329.01,462.64 354.99,462.64 354.99,447.63 314,447.65 314,630.15 355.55,630.15 355.55,615.14 329.01,615.14 329.01,545.63 "
   id="polygon12" />
			</g>
			<g
   id="g18">
				<polygon
   class="st0"
   points="195.13,462.43 211.87,462.43 211.87,630.15 226.87,630.15 226.87,462.43 243.61,462.43 243.61,447.42 195.13,447.42 "
   id="polygon16" />
			</g>
			<g
   id="g22">
				<polygon
   class="st0"
   points="269,447.42 254,447.42 254,630.15 269,630.15 269,541.73 283.43,541.73 283.43,630.15 298.43,630.15 298.43,447.42 283.43,447.42 283.43,526.73 269,526.73 "
   id="polygon20" />
			</g>
		</g>
		<g
   id="g28">
			<path
   class="st0"
   d="m 843.21,629.48 c -7.96,-4.62 -8.94,-36.93 -8.94,-36.93 v -9.97 c 0,-16.83 -12.51,-30.85 -28.69,-33.3 18.69,-6.67 32.17,-24.58 32.17,-45.5 v -8.04 c 0,-26.56 -21.73,-48.29 -48.29,-48.29 l -147.08,-0.42 c 0,0 0,80.18 0,99.54 0,56.88 -8.44,84.51 -8.44,84.51 h 84.98 v -63 h 21.21 c 15.81,0 28.75,12.94 28.75,28.75 0,0.44 -0.05,0.88 -0.07,1.31 h 0.07 v 31.88 h 57.82 16.37 c 0.3,0.01 0.41,-0.38 0.14,-0.54 z M 760.85,529.38 H 718.92 V 506.9 h 41.93 c 6.18,0 11.24,5.06 11.24,11.24 0,6.18 -5.05,11.24 -11.24,11.24 z"
   id="path26" />
		</g>
		<g
   id="g32">
			<path
   class="st0"
   d="m 628.75,569.41 c -7.12,-15.3 -24.84,-26.82 -40.66,-31.35 -4.8,-1.37 -8.24,-2.9 -14.84,-4.86 12,-3.75 24.74,-6.75 34.42,-15.28 13.94,-12.28 15.69,-37.76 2.94,-51.51 -12.02,-12.97 -27.62,-18.77 -44.56,-18.96 -53.27,-0.61 -193.83,-0.41 -193.83,-0.41 v 68.08 l 29.94,-0.13 c -5.36,6.15 -5.55,16.3 -5.51,24.38 0.16,30.08 -3.83,61.04 -9.79,91.51 4.13,0.46 7.29,-0.01 10.09,-0.01 17.08,0 34.15,0.01 51.23,0.01 0.09,-0.01 32.03,-4.94 32.03,-42.28 v 42.27 c 30.96,-0.01 61.93,-0.05 92.89,-0.2 21.65,-0.1 47.66,-13.42 56.23,-34.38 3.98,-9.7 3.17,-18.82 -0.58,-26.88 z M 483.59,524.22 v -13.57 -7.41 h 42.68 c 6.18,0 11.24,5.06 11.24,11.24 0,6.18 -5.06,11.24 -11.24,11.24 h -42.68 z m 63.71,35.42 c 0,6.18 -5.06,11.24 -11.24,11.24 h -52.47 v -4.97 -17.51 h 52.47 0.59 c 1.59,0 3.07,0.43 4.35,1.17 3.72,1.84 6.3,5.66 6.3,10.07 z"
   id="path30" />
		</g>
		<g
   id="g36">
			<path
   class="st0"
   d="m 1153.84,639.85 c 0,0 57.9,2.48 78.23,-40.05 0,0 -2.8,17.51 -5,30.55 0.04,-0.02 0.09,-0.04 0.13,-0.06 l -0.69,0.79 h 75.57 c 0,0 -4.12,-26.32 -4.12,-52.81 0,-26.49 4.12,-49.05 4.12,-49.05 l -66.85,-1.17 54.02,-30.15 v 0 c -24.32,-36.81 -41.27,-57.79 -118.55,-57.79 v 0 c -72.05,0 -111.8,46.79 -111.8,96.21 v 0 c -0.01,72.26 39.67,103.53 94.94,103.53 m 34.74,-54.17 c -18.96,0 -31.35,-16.64 -31.35,-37.16 0,-20.53 12.39,-37.16 31.35,-37.16 16.03,0 27.71,3.1 30.93,16.47 l -30.93,-0.56 4.59,45.98 27.82,0.71 c -3.69,6.99 -12.67,11.72 -32.41,11.72 z"
   id="path34" />
		</g>
		<g
   id="g40">
			<path
   class="st0"
   d="m 1022.14,452.5 c -1.49,-7.25 -4.96,-6.17 -12.36,-6.28 L 887.51,446.4 849.8,630.03 h 75.68 l 3.56,-19.07 h 37.26 14.61 10.86 c 0,0 -10.12,3.97 -8.82,10.89 l 1.53,8.17 h 75.68 z m -83.17,111.71 16.01,-78.5 16.01,78.5 z"
   id="path38" />
		</g>
	</g>
	<g
   id="g54">
		<path
   class="st0"
   d="m 1582,630.19 h -76.24 v -85.93 l -5.23,11.87 -31.99,74.05 h -46.11 l -32.24,-74.07 -4.99,-11.58 v 85.65 h -68.9 V 449.93 c 0,-2.51 2.04,-4.56 4.56,-4.56 h 97.01 l 30.57,71.93 3.13,7.84 3.25,-7.82 30.34,-71.95 h 91.9 c 2.72,0 4.94,2.21 4.94,4.94 z m -70.57,-5.67 h 64.9 V 451.05 h -87.4 l -28.87,68.47 -8.59,20.68 -8.26,-20.73 -29.08,-68.42 h -92.15 v 173.47 h 57.56 V 517.03 l 15.86,36.84 30.75,70.65 h 38.67 l 30.52,-70.65 16.09,-36.56 z"
   id="path44" />
		<path
   class="st0"
   d="M 1781.7,630.19 H 1597 V 445.38 h 184.7 v 49.47 H 1673 v 14.97 h 97.45 v 43.94 H 1673 v 17.12 l 108.7,0.59 z m -179.03,-5.67 h 173.36 V 577.1 l -108.7,-0.59 v -28.43 h 97.45 v -32.6 h -97.45 v -26.31 h 108.7 v -38.13 h -173.36 z"
   id="path46" />
		<path
   class="st0"
   d="M 1901.49,630.19 H 1795.64 V 445.38 h 105.85 c 29.73,0 56.66,9.39 75.83,26.44 18.75,16.68 29.07,39.53 29.07,64.36 v 2.95 c 0,24.64 -10.32,47.47 -29.06,64.28 -19.26,17.27 -46.19,26.78 -75.84,26.78 z m -100.18,-5.67 h 100.18 c 28.25,0 53.84,-9 72.05,-25.33 17.53,-15.72 27.18,-37.05 27.18,-60.06 v -2.95 c 0,-23.19 -9.65,-44.54 -27.17,-60.12 -18.13,-16.12 -43.72,-25 -72.06,-25 h -100.18 z m 96.86,-43.02 h -31.96 v -87.98 h 31.96 c 21.33,0 36.22,17.21 36.22,41.84 v 4.3 c 0.01,24.64 -14.89,41.84 -36.22,41.84 z m -26.29,-5.67 h 26.29 c 20.99,0 30.55,-18.75 30.55,-36.17 v -4.3 c 0,-17.42 -9.56,-36.17 -30.55,-36.17 h -26.29 z"
   id="path48" />
		<path
   class="st0"
   d="m 2094.83,630.19 h -76 V 450.84 c 0,-3.01 2.45,-5.46 5.46,-5.46 h 70.54 z m -70.33,-5.67 h 64.66 V 451.05 h -64.66 z"
   id="path50" />
		<path
   class="st0"
   d="m 2337.65,630.19 h -82.27 l -10.89,-30.93 h -61.43 l -12.31,30.93 h -67 L 2179,445.38 h 73.18 c 5.32,0 10.08,3.18 12.12,8.09 z m -78.25,-5.67 h 69.76 l -70.1,-168.87 c -1.16,-2.79 -3.86,-4.6 -6.89,-4.6 h -69.37 l -70.63,173.47 h 54.72 l 12.31,-30.93 h 69.29 z m -23.14,-66.42 h -43.37 l 22.98,-72.67 z m -35.62,-5.67 h 28.15 l -13.24,-47.17 z"
   id="path52" />
	</g>
</g>
</svg>
