<svg xmlns="http://www.w3.org/2000/svg" width="300.44" height="46.429" viewBox="0 0 300.44 46.429">
  <g id="Group_479" data-name="Group 479" transform="translate(-641.89 -61)">
    <g id="Group_26" data-name="Group 26" transform="translate(-59.398 30.993)">
      <g id="Group_24" data-name="Group 24" transform="translate(761.07 33.007)">
        <g id="Group_23" data-name="Group 23" transform="translate(0 1.588)">
          <path id="Path_66" data-name="Path 66" d="M215.375,519.484V504.37h4.859v-3.262h-4.859V486.327h5.649v-3.262l-8.911,0v39.677h9.033v-3.262Z" transform="translate(-186.27 -483.02)" fill="#fff"/>
          <path id="Path_67" data-name="Path 67" d="M149.382,482.936H138.843V486.2h3.638v36.464h3.262V486.2h3.638v-3.262h0Z" transform="translate(-138.843 -482.936)" fill="#fff"/>
          <path id="Path_68" data-name="Path 68" d="M181.524,500.179h-3.136V482.936h-3.262v39.726h3.262V503.44h3.136v19.222h3.262V482.936h-3.262Z" transform="translate(-162.329 -482.936)" fill="#fff"/>
        </g>
        <path id="Path_69" data-name="Path 69" d="M454.82,522.364c-1.73-1-1.943-8.029-1.943-8.029v-2.167a7.352,7.352,0,0,0-6.238-7.24,10.537,10.537,0,0,0,6.994-9.891v-1.747a10.529,10.529,0,0,0-10.5-10.5l-31.976-.092v21.64c0,12.367-1.836,18.373-1.836,18.373H427.8v-13.7h4.611a6.268,6.268,0,0,1,6.25,6.25c0,.1-.01.19-.014.286h.014v6.932h16.128A.064.064,0,0,0,454.82,522.364ZM436.914,500.6H427.8v-4.887h9.116a2.444,2.444,0,1,1,0,4.887Z" transform="translate(-313.922 -481.195)" fill="#fff"/>
        <path id="Path_70" data-name="Path 70" d="M303.773,509.293c-1.548-3.326-5.4-5.83-8.84-6.816-1.043-.3-1.791-.63-3.226-1.057,2.609-.815,5.378-1.468,7.482-3.321,3.032-2.67,3.411-8.209.639-11.2a12.984,12.984,0,0,0-9.687-4.122c-11.582-.132-42.139-.09-42.139-.09v14.8l6.509-.029c-1.165,1.336-1.207,3.543-1.2,5.3a101.9,101.9,0,0,1-2.128,19.895,15.982,15.982,0,0,0,2.194,0h11.138c.02,0,6.963-1.075,6.963-9.192v9.189q10.1,0,20.2-.043c4.707-.022,10.361-2.918,12.225-7.475A7.063,7.063,0,0,0,303.773,509.293Zm-31.558-9.825v-4.562h9.278a2.444,2.444,0,1,1,0,4.887h-9.278Zm13.85,7.7a2.451,2.451,0,0,1-2.444,2.444H272.214v-4.887h11.534a1.891,1.891,0,0,1,.946.254,2.449,2.449,0,0,1,1.369,2.19Z" transform="translate(-209.501 -481.184)" fill="#fff"/>
        <path id="Path_71" data-name="Path 71" d="M691.9,521.859s12.589.539,17.008-8.708c0,0-.608,3.806-1.088,6.642l.029-.012-.15.173h16.429a85.062,85.062,0,0,1-.9-11.481,66.57,66.57,0,0,1,.9-10.665l-14.533-.254L721.341,491h0c-5.287-8-8.973-12.564-25.773-12.564h0c-15.665,0-24.307,10.172-24.307,20.916h0c0,15.709,8.625,22.508,20.642,22.508m7.554-11.778c-4.121,0-6.815-3.618-6.815-8.08s2.694-8.08,6.815-8.08c3.486,0,6.024.674,6.724,3.582l-6.724-.122,1,10,6.048.154C705.7,509.052,703.747,510.081,699.456,510.081Z" transform="translate(-483.472 -478.435)" fill="#fff"/>
        <path id="Path_72" data-name="Path 72" d="M579.846,483.559c-.324-1.577-1.078-1.342-2.688-1.365l-26.582.04-8.2,39.922h16.454l.774-4.145h13.638s-2.2.863-1.918,2.368l.331,1.777h16.454Zm-18.081,24.286,3.481-17.067,3.481,17.067Z" transform="translate(-400.048 -480.868)" fill="#fff"/>
      </g>
    </g>
    <g id="Group_29" data-name="Group 29" transform="translate(641.891 61)">
      <path id="Subtraction_1" data-name="Subtraction 1" d="M5165.663,67.8a81.9,81.9,0,0,1-12.505-.974,13.085,13.085,0,0,1-6.562-3.568,11.625,11.625,0,0,1-3.613-6.287,87.815,87.815,0,0,1,0-24.714,11.625,11.625,0,0,1,3.613-6.287,13.085,13.085,0,0,1,6.562-3.568,80.854,80.854,0,0,1,25.01,0,13.084,13.084,0,0,1,6.563,3.569,11.633,11.633,0,0,1,3.614,6.286,87.815,87.815,0,0,1,0,24.714,11.632,11.632,0,0,1-3.614,6.287,13.085,13.085,0,0,1-6.562,3.568A81.9,81.9,0,0,1,5165.663,67.8Zm-13.037-26.326v0a4.836,4.836,0,0,0-.717,3.18,60.721,60.721,0,0,1-1.276,11.938,4.581,4.581,0,0,0,.5.026c.164,0,.313-.007.457-.014.126-.006.245-.012.36-.012h6.685a5.311,5.311,0,0,0,2.094-.932,5.368,5.368,0,0,0,2.084-4.584v5.514c3.346,0,7.748-.006,12.119-.026a8.975,8.975,0,0,0,4.308-1.223,6.985,6.985,0,0,0,3.028-3.263,4.228,4.228,0,0,0-.078-3.507,8.689,8.689,0,0,0-5.3-4.09c-.3-.086-.562-.178-.839-.275l-.013,0c-.3-.1-.64-.223-1.083-.355.163-.051.326-.1.49-.15l.133-.04a9.98,9.98,0,0,0,3.867-1.8,4.76,4.76,0,0,0,1.5-3.344,4.617,4.617,0,0,0-1.117-3.376,7.833,7.833,0,0,0-5.814-2.473c-3.306-.038-6.836-.055-11.449-.055-1.956,0-3.939,0-5.857.006l-3.546,0-4.435-.01v8.882l3.9-.017Zm18.83,7h-10v-3.3h10a1.651,1.651,0,0,1,0,3.3Zm-1.52-6.612h-8.481V39.3h8.481a1.28,1.28,0,1,1,0,2.559Z" transform="translate(-5142.109 -21.429)" fill="#b98d5b"/>
    </g>
  </g>
</svg>
