<?xml version="1.0" encoding="utf-8"?>
<!-- Generator: Adobe Illustrator 25.2.2, SVG Export Plug-In . SVG Version: 6.00 Build 0)  -->
<svg version="1.1" id="Wordmark" xmlns="http://www.w3.org/2000/svg" xmlns:xlink="http://www.w3.org/1999/xlink" x="0px" y="0px"
	 viewBox="0 0 1920 1080" style="enable-background:new 0 0 1920 1080;" xml:space="preserve">
<style type="text/css">
	.st0{fill:#FFFFFF;}
</style>
<g>
	<g>
		<g>
			<polygon class="st0" points="540.4,615.14 540.4,545.63 562.75,545.63 562.75,530.62 540.4,530.62 540.4,462.64 566.39,462.64 
				566.39,447.63 525.4,447.65 525.4,630.15 566.95,630.15 566.95,615.14 			"/>
		</g>
		<g>
			<polygon class="st0" points="455,447.42 406.53,447.42 406.53,462.43 423.26,462.43 423.26,630.15 438.27,630.15 438.27,462.43 
				455,462.43 455,447.42 455,447.42 			"/>
		</g>
		<g>
			<polygon class="st0" points="494.82,526.73 480.4,526.73 480.4,447.42 465.39,447.42 465.39,630.15 480.4,630.15 480.4,541.73 
				494.82,541.73 494.82,630.15 509.82,630.15 509.82,447.42 494.82,447.42 			"/>
		</g>
	</g>
	<g>
		<path class="st0" d="M1054.61,629.48c-7.96-4.62-8.94-36.93-8.94-36.93v-9.97c0-16.83-12.51-30.85-28.69-33.3
			c18.69-6.67,32.17-24.58,32.17-45.5v-8.04c0-26.56-21.73-48.29-48.29-48.29l-147.08-0.42c0,0,0,80.18,0,99.54
			c0,56.88-8.44,84.51-8.44,84.51h84.98v-63h21.21c15.81,0,28.75,12.94,28.75,28.75c0,0.44-0.05,0.88-0.07,1.31h0.07v31.88h57.82
			h16.37C1054.76,630.03,1054.87,629.64,1054.61,629.48z M972.25,529.38h-41.93V506.9h41.93c6.18,0,11.24,5.06,11.24,11.24
			C983.49,524.32,978.43,529.38,972.25,529.38z"/>
	</g>
	<g>
		<path class="st0" d="M840.14,569.41c-7.12-15.3-24.84-26.82-40.66-31.35c-4.8-1.37-8.24-2.9-14.84-4.86
			c12-3.75,24.74-6.75,34.42-15.28c13.94-12.28,15.69-37.76,2.94-51.51c-12.02-12.97-27.62-18.77-44.56-18.96
			c-53.27-0.61-193.83-0.41-193.83-0.41v68.08l29.94-0.13c-5.36,6.15-5.55,16.3-5.51,24.38c0.16,30.08-3.83,61.04-9.79,91.51
			c4.13,0.46,7.29-0.01,10.09-0.01c17.08,0,34.15,0.01,51.23,0.01c0.09-0.01,32.03-4.94,32.03-42.28v42.27
			c30.96-0.01,61.93-0.05,92.89-0.2c21.65-0.1,47.66-13.42,56.23-34.38C844.7,586.59,843.9,577.47,840.14,569.41z M694.99,524.22
			v-13.57v-7.41h42.68c6.18,0,11.24,5.06,11.24,11.24s-5.06,11.24-11.24,11.24h-42.68V524.22z M758.69,559.64
			c0,6.18-5.06,11.24-11.24,11.24h-52.47v-4.97V548.4h52.47h0.59c1.59,0,3.07,0.43,4.35,1.17
			C756.11,551.41,758.69,555.23,758.69,559.64L758.69,559.64z"/>
	</g>
	<g>
		<path class="st0" d="M1365.24,639.85c0,0,57.9,2.48,78.23-40.05c0,0-2.8,17.51-5,30.55c0.04-0.02,0.09-0.04,0.13-0.06l-0.69,0.79
			h75.57c0,0-4.12-26.32-4.12-52.81s4.12-49.05,4.12-49.05l-66.85-1.17l54.02-30.15l0,0c-24.32-36.81-41.27-57.79-118.55-57.79l0,0
			c-72.05,0-111.81,46.79-111.81,96.21l0,0C1270.29,608.58,1309.96,639.85,1365.24,639.85 M1399.98,585.68
			c-18.96,0-31.35-16.64-31.35-37.16c0-20.53,12.39-37.16,31.35-37.16c16.03,0,27.71,3.1,30.93,16.47l-30.93-0.56l4.59,45.98
			l27.82,0.71C1428.69,580.95,1419.72,585.68,1399.98,585.68z"/>
	</g>
	<g>
		<path class="st0" d="M1233.53,452.5c-1.49-7.25-4.96-6.17-12.36-6.28l-122.27,0.18l-37.71,183.62h75.68l3.56-19.07h37.26h14.61
			h10.86c0,0-10.12,3.97-8.82,10.89l1.53,8.17h75.68L1233.53,452.5z M1150.37,564.21l16.01-78.5l16.01,78.5H1150.37z"/>
	</g>
</g>
</svg>
