<svg xmlns="http://www.w3.org/2000/svg" width="139.555" height="15.995" viewBox="0 0 139.555 15.995">
  <g id="Group_413" data-name="Group 413" transform="translate(3050.468 -3075.976)">
    <g id="Group_411" data-name="Group 411">
      <g id="Group_410" data-name="Group 410">
        <path id="Path_178" data-name="Path 178" d="M-3038.9,3090.547v-6.008h1.931v-1.3h-1.931v-5.876h2.246v-1.3h-3.542v15.772h3.591v-1.3Z" fill="#fff"/>
        <path id="Path_179" data-name="Path 179" d="M-3046.279,3076.052h-4.189v.5h0v.792h1.446v14.495h1.3v-14.495h1.446v-1.3Z" fill="#fff"/>
        <path id="Path_180" data-name="Path 180" d="M-3042.988,3082.906h-1.247v-6.854h-1.3v15.791h1.3V3084.2h1.247v7.641h1.3v-15.791h-1.3Z" fill="#fff"/>
      </g>
      <path id="Path_181" data-name="Path 181" d="M-3013.323,3086.611a5.74,5.74,0,0,0-3.533-2.724c-.417-.12-.716-.252-1.29-.423a7.828,7.828,0,0,0,2.991-1.327,3.319,3.319,0,0,0,.255-4.476,5.188,5.188,0,0,0-3.871-1.648c-4.63-.053-9.26-.033-13.889-.029l-2.954-.007v5.917l2.6-.012a3.269,3.269,0,0,0-.478,2.119,40.759,40.759,0,0,1-.851,7.952,6.327,6.327,0,0,0,.877,0h4.452a3.475,3.475,0,0,0,2.783-3.674v3.672q4.036,0,8.072-.017a5.51,5.51,0,0,0,4.886-2.988A2.821,2.821,0,0,0-3013.323,3086.611Zm-12.614-5.107h3.91a.59.59,0,0,1,.59.59.59.59,0,0,1-.59.59h-3.91Zm5.371,4.042a.761.761,0,0,1-.761.761h-4.61v-1.522h4.61a.761.761,0,0,1,.761.761Z" fill="#fff"/>
    </g>
    <g id="Group_412" data-name="Group 412" transform="translate(0 0.135)">
      <path id="Path_182" data-name="Path 182" d="M-2992.4,3091.835v-8.623l-1.081,2.162-3.17,6.461h-4.3l-3.193-6.461-1.057-2.162v8.623h-6.413v-16h9.823l3.026,6.268.576,1.273.6-1.273,3-6.268h9.343v16Z" fill="#fff"/>
      <path id="Path_183" data-name="Path 183" d="M-2982.224,3091.835v-16h18.157v4.779h-11.024v2.042h7.277v2.088h-7.277v1.9h11.024v5.187Z" transform="translate(-1.388)" fill="#fff"/>
      <path id="Path_184" data-name="Path 184" d="M-2951.3,3091.835h-10.447v-16h10.447c6.2,0,10.352,3.506,10.352,7.854v.263C-2940.945,3088.257-2945.1,3091.835-2951.3,3091.835Zm3.051-8.214a3.288,3.288,0,0,0-3.387-3.482h-2.954v7.349h2.954a3.287,3.287,0,0,0,3.387-3.482Z" transform="translate(-2.355)" fill="#fff"/>
      <path id="Path_185" data-name="Path 185" d="M-2938.693,3091.835v-16h7.133v16Z" transform="translate(-3.443)" fill="#fff"/>
      <path id="Path_186" data-name="Path 186" d="M-2914.764,3091.835l-1.105-2.762h-6.628l-1.249,2.762h-6.172l7.4-16h7.925l7.541,16Zm-4.227-10.831-1.921,4.394h3.626Z" transform="translate(-3.858)" fill="#fff"/>
    </g>
  </g>
</svg>
