<?xml version="1.0" encoding="iso-8859-1"?>
<!-- Generator: Adobe Illustrator 18.0.0, SVG Export Plug-In . SVG Version: 6.00 Build 0)  -->
<!DOCTYPE svg PUBLIC "-//W3C//DTD SVG 1.1//EN" "http://www.w3.org/Graphics/SVG/1.1/DTD/svg11.dtd">
<svg version="1.1" id="Capa_1" xmlns="http://www.w3.org/2000/svg" xmlns:xlink="http://www.w3.org/1999/xlink" x="0px" y="0px"
	 viewBox="0 0 295.5 295.5" style="enable-background:new 0 0 295.5 295.5;" xml:space="preserve">
<g>
	<path d="M292.325,146.498l-21.575-15.229V10.875c0-4.143-3.357-7.5-7.5-7.5h-231c-4.143,0-7.5,3.357-7.5,7.5v120.394L3.175,146.498
		C1.184,147.903,0,150.189,0,152.625v132c0,4.143,3.357,7.5,7.5,7.5H288c4.143,0,7.5-3.357,7.5-7.5v-132
		C295.5,150.189,294.316,147.903,292.325,146.498z M273.151,151.323l-2.401,1.13v-2.825L273.151,151.323z M255.75,159.471
		l-108,50.865l-108-50.865V18.375h216V159.471z M24.75,152.454l-2.402-1.13l2.402-1.696V152.454z M15,277.125V164.443
		l129.557,60.968c1.011,0.476,2.103,0.714,3.193,0.714c1.091,0,2.183-0.238,3.193-0.714L280.5,164.443v112.682H15z"/>
	<path d="M117.849,121.866c2.285,2.271,5.297,7.3,6.274,10.456l3.352,13.743c0.818,3.359,3.828,5.724,7.286,5.724h22.979
		c3.457,0,6.467-2.363,7.286-5.722l3.355-13.748c0.973-3.147,3.984-8.178,6.272-10.453c1.388-1.379,13.564-13.927,13.564-29.378
		c0-23.174-18.826-42.027-41.967-42.027c-23.142,0-41.969,18.854-41.969,42.027C104.282,107.94,116.461,120.487,117.849,121.866z
		 M146.251,65.461c14.869,0,26.967,12.124,26.967,27.027c0,7.821-6.609,16.191-9.141,18.741
		c-4.134,4.111-8.489,11.422-10.131,17.004c-0.033,0.112-0.063,0.225-0.091,0.338l-2.006,8.218h-11.197l-2.004-8.216
		c-0.027-0.116-0.059-0.231-0.093-0.346c-1.648-5.588-6.004-12.896-10.116-16.983c-2.547-2.565-9.157-10.935-9.157-18.756
		C119.282,77.585,131.38,65.461,146.251,65.461z"/>
	<path d="M154.5,158.625H138c-4.143,0-7.5,3.357-7.5,7.5s3.357,7.5,7.5,7.5h16.5c4.143,0,7.5-3.357,7.5-7.5
		S158.643,158.625,154.5,158.625z"/>
	<path d="M146.514,178.125h-0.527c-4.143,0-7.5,3.357-7.5,7.5s3.357,7.5,7.5,7.5h0.527c4.143,0,7.5-3.357,7.5-7.5
		S150.656,178.125,146.514,178.125z"/>
	<path d="M145.986,41.625h0.527c4.143,0,7.5-3.357,7.5-7.5s-3.357-7.5-7.5-7.5h-0.527c-4.143,0-7.5,3.357-7.5,7.5
		S141.844,41.625,145.986,41.625z"/>
	<path d="M100.986,54.625h0.527c4.143,0,7.5-3.357,7.5-7.5s-3.357-7.5-7.5-7.5h-0.527c-4.143,0-7.5,3.357-7.5,7.5
		S96.844,54.625,100.986,54.625z"/>
	<path d="M190.986,54.625h0.527c4.143,0,7.5-3.357,7.5-7.5s-3.357-7.5-7.5-7.5h-0.527c-4.143,0-7.5,3.357-7.5,7.5
		S186.844,54.625,190.986,54.625z"/>
	<path d="M207.986,91.125h0.527c4.143,0,7.5-3.357,7.5-7.5s-3.357-7.5-7.5-7.5h-0.527c-4.143,0-7.5,3.357-7.5,7.5
		S203.844,91.125,207.986,91.125z"/>
	<path d="M86.986,91.125h0.527c4.143,0,7.5-3.357,7.5-7.5s-3.357-7.5-7.5-7.5h-0.527c-4.143,0-7.5,3.357-7.5,7.5
		S82.844,91.125,86.986,91.125z"/>
</g>
<g>
</g>
<g>
</g>
<g>
</g>
<g>
</g>
<g>
</g>
<g>
</g>
<g>
</g>
<g>
</g>
<g>
</g>
<g>
</g>
<g>
</g>
<g>
</g>
<g>
</g>
<g>
</g>
<g>
</g>
</svg>
