<svg id="Layer_1" data-name="Layer 1" xmlns="http://www.w3.org/2000/svg" viewBox="0 0 1043.68 444.67"><defs><style>.cls-1{fill:#181816;}</style></defs><path class="cls-1" d="M299.81,124.61c-6.52-4.46-16.13-7.89-17.85-8.58a55.73,55.73,0,0,0,15.45-10.64c14.76-14.07,16.13-31.58,16.13-38.45a58.4,58.4,0,0,0-12.36-36.39c-18.88-24-49.77-24.37-77.24-24.37H111.34V248.54H236c9.95,0,52.87,2.06,76.55-30.89,5.15-7.21,12.7-20.26,12.7-42.23C325.21,146.24,309.77,130.79,299.81,124.61ZM173.48,54.24h43.94c10.64,0,22.66,0,30.21,9.61,4.12,5.5,4.46,12,4.46,14.42a20.14,20.14,0,0,1-5.15,14.08c-7.2,8.58-18.19,8.92-28.49,8.92h-45Zm84.11,131.48c-4.81,9.27-14.42,12.7-34,12.7H173.48V142.81h48.75c10,.34,17.85,0,26.77,5.15,11.33,6.52,12.36,18.54,12.36,22.66A30,30,0,0,1,257.59,185.72Z"/><path class="cls-1" d="M549.73,160c-2.75-5.49-11-19.22-28.84-24.37,25.06-10,33.3-34,35.36-42.23a63.38,63.38,0,0,0,2.06-17.16,66.69,66.69,0,0,0-13.39-41.54C535.66,22,519.18,8.58,484.85,6.52c-5.5-.34-11-.34-16.48-.34H349.93V248.54H413.1V158.26h36.39c14.42.34,29.52.68,38.1,14.76,2.06,3.43,5.5,11,6.87,21.63a119.36,119.36,0,0,1,1.72,15.44c.34,6.53,1.71,24,3.43,30.56a26,26,0,0,0,2.75,7.89h65.22c-5.15-8.58-5.49-11.33-7.55-27.46C558,203.23,558,177.14,549.73,160ZM492.4,99.55c-7.21,13-21.28,13.39-34.33,13.74h-45V54.93h43.6c12.7.34,26.43.68,34.67,12.7,3.43,4.8,4.46,10,4.46,16.13A33.2,33.2,0,0,1,492.4,99.55Z"/><path class="cls-1" d="M666,6.18,576,248.54h64.2l15.44-44.28h83.42l15.11,44.28h64.88L729.48,6.18Zm4.12,152.42L697.9,74.49l26.77,84.11Z"/><path class="cls-1" d="M940.5,116.38V162h43.26c-2.06,14.08-8.24,22.66-12,26.78-5.49,5.84-17.5,14.76-37.76,14.76-12,0-24.71-3.09-34.33-11-25.4-19.57-24-58-24-64.54,0-37.08,12-55.27,26.78-65.23a49,49,0,0,1,28.49-8.92c12.7,0,22,3.77,26.09,6.18,14.76,8.24,18.54,23,19.57,28.15H1038c-.69-8.59-2.06-14.42-3.43-17.85a99.2,99.2,0,0,0-39.48-52.19A107.37,107.37,0,0,0,933.64,0a141.15,141.15,0,0,0-30.9,3.43,133.26,133.26,0,0,0-29.86,11,118.06,118.06,0,0,0-36,31.58c-17.51,23.35-25.4,52.87-25.4,81.7,0,57.33,26.43,89.26,45,104,26.43,20.6,57.33,22.66,68.31,22.66,32.62,0,53.21-13.73,62.83-22,4.11-3.44,5.83-5.84,9.61-10l3.77,26.09h40.51V116.38Z"/><polygon class="cls-1" points="20.77 173.79 1.21 173.79 1.21 248.57 20.77 248.57 20.77 222.69 88.61 222.69 88.61 199.66 20.77 199.66 20.77 173.79"/><polygon class="cls-1" points="1.21 113.17 32.4 113.17 32.4 141.77 1.21 141.77 1.21 164.79 88.61 164.79 88.61 141.77 52.46 141.77 52.46 113.17 88.61 113.17 88.61 90.27 1.21 90.27 1.21 113.17"/><polygon class="cls-1" points="69.42 53.35 52.34 53.35 52.34 11.26 34.63 11.26 34.63 53.35 19.65 53.35 19.65 7.29 1.21 7.29 1.21 76.13 88.61 76.13 88.61 6.18 69.42 6.18 69.42 53.35"/><path d="M23.18,438.25A44,44,0,0,1,6.11,420Q0,408.24,0,392.71V348.42q0-15.54,6.11-27.33a43.93,43.93,0,0,1,17.07-18.21q11-6.42,25.47-6.42H70.59q14.49,0,25.46,6.42a44,44,0,0,1,17.08,18.21q6.09,11.81,6.1,27.33v44.29q0,15.53-6.1,27.22a44.69,44.69,0,0,1-17.19,18.22,49,49,0,0,1-25.35,6.52H48.44A49.11,49.11,0,0,1,23.18,438.25Zm47-7.24q15.12,0,24.43-10.56t9.31-27.74V348.42q0-17.19-9.31-27.74T70.17,310.12H49.06q-15.12,0-24.43,10.56t-9.31,27.74v44.29q0,17.19,9.21,27.74T48.85,431Z"/><path d="M152.56,439.29a13.19,13.19,0,0,1-3.73-9.73V298.11h61.28q18.42,0,29.7,8.8a28.09,28.09,0,0,1,11.28,23.29v11a31.74,31.74,0,0,1-3.52,14.59,28.58,28.58,0,0,1-9.73,11.08v.21a29.69,29.69,0,0,1,16.25,10.45,28.44,28.44,0,0,1,6.11,18.11v9.94q0,17-10.76,27.22T220.25,443h-58A13.15,13.15,0,0,1,152.56,439.29Zm61.69-75.76q9.72,0,15.62-6.11t5.9-16.25v-11q0-8.28-7.14-13.35t-18.52-5.07h-46v51.75Zm3.93,65.82q12.42,0,19.56-6.52t7.14-17.28v-9.94a17.42,17.42,0,0,0-6.21-14q-6.21-5.28-16.35-5.28H164.15v53Z"/><path d="M301.6,439.39a37.11,37.11,0,0,1-14.8-14.9,45.56,45.56,0,0,1-5.28-22.26h14.9q0,12.84,7.56,20.81t20,8h23q12.21,0,19.66-5.49a17,17,0,0,0,7.46-14.38V397.89a15.62,15.62,0,0,0-5.49-12q-5.49-5-15-6.42l-37.26-6.21q-15.74-2.69-24.42-11.17t-8.7-21.32V329.58q0-15.1,11.29-24.12t29.91-9h23.39q17.6,0,28.36,10.66t10.76,28.05H372q0-11.39-6.63-18.22t-17.59-6.83H324.37q-11.81,0-18.84,5.28a16.83,16.83,0,0,0-7,14.18v11.18A16.1,16.1,0,0,0,303.77,353q5.28,5,14.59,6.62L355.42,366q16.14,2.89,25,11.07a27,27,0,0,1,8.91,20.81v13.25q0,15.11-11.6,24.32t-30.43,9.21h-23.8A44.47,44.47,0,0,1,301.6,439.39Z"/><path d="M420.42,439.39q-3.53-3.61-3.52-10V298.11h97.29v13.25h-82v50.92H508v13.25H432.21v54.24h82V443H430.35Q423.93,443,420.42,439.39Z"/><path d="M541.71,298.11H612.1q15.93,0,25.56,9t9.63,23.7v15.11a29.24,29.24,0,0,1-7,19.36,38.21,38.21,0,0,1-18.84,11.9v.2A33.06,33.06,0,0,1,632.69,388a55.83,55.83,0,0,1,7.76,16.35L651.84,443H636.11L624.72,404.3a33.17,33.17,0,0,0-10-16.35,23.32,23.32,0,0,0-15.63-6.21H557V443H541.71Zm65,70q11.38,0,18.32-6.11t6.94-16V330q0-8.28-5.59-13.25t-14.7-5H557v56.3Z"/><path d="M718.8,440.74a18,18,0,0,1-4.45-7.25L664.88,298.11h15.73l45.13,126.48h.2l45.34-126.48H787L733.19,443h-7.87A9.51,9.51,0,0,1,718.8,440.74Z"/><path d="M812.26,439.39q-3.53-3.61-3.52-10V298.11H906v13.25h-82v50.92h75.76v13.25H824.06v54.24h82V443H822.2Q815.78,443,812.26,439.39Z"/><path d="M933.56,298.11h70.38q15.93,0,25.56,9t9.63,23.7v15.11a29.24,29.24,0,0,1-7,19.36,38.16,38.16,0,0,1-18.84,11.9v.2A33.18,33.18,0,0,1,1024.54,388a56.08,56.08,0,0,1,7.76,16.35L1043.68,443H1028l-11.38-38.71a33.24,33.24,0,0,0-10-16.35,23.32,23.32,0,0,0-15.63-6.21h-42V443H933.56Zm65,70q11.38,0,18.32-6.11t6.93-16V330q0-8.28-5.59-13.25t-14.69-5H948.88v56.3Z"/></svg>