<svg id="Layer_1" data-name="Layer 1" xmlns="http://www.w3.org/2000/svg" viewBox="0 0 1043.68 444.67"><defs><style>.cls-1{fill:#fff;}</style></defs><path class="cls-1" d="M312.51,217.65c5.15-7.21,12.7-20.26,12.7-42.23,0-29.18-15.44-44.63-25.4-50.81-6.52-4.46-16.13-7.89-17.85-8.58a55.73,55.73,0,0,0,15.45-10.64c14.76-14.07,16.13-31.58,16.13-38.45a58.4,58.4,0,0,0-12.36-36.39c-18.88-24-49.77-24.37-77.24-24.37H111.34V248.54H236C245.91,248.54,288.83,250.6,312.51,217.65Zm-139-163.41h43.94c10.64,0,22.66,0,30.21,9.61,4.12,5.5,4.46,12,4.46,14.42a20.14,20.14,0,0,1-5.15,14.08c-7.2,8.58-18.19,8.92-28.49,8.92h-45Zm0,144.18V142.81h48.75c10,.34,17.85,0,26.77,5.15,11.33,6.52,12.36,18.54,12.36,22.66a30,30,0,0,1-3.77,15.1c-4.81,9.27-14.42,12.7-34,12.7Z"/><path class="cls-1" d="M487.59,173c2.06,3.43,5.5,11,6.87,21.63a119.17,119.17,0,0,1,1.72,15.44c.34,6.53,1.71,24,3.43,30.56a26,26,0,0,0,2.75,7.89h65.22c-5.15-8.58-5.49-11.33-7.55-27.46C558,203.23,558,177.14,549.73,160c-2.75-5.49-11-19.22-28.84-24.37,25.06-10,33.3-34,35.36-42.23a63.38,63.38,0,0,0,2.06-17.16,66.69,66.69,0,0,0-13.39-41.54C535.66,22,519.18,8.58,484.85,6.52c-5.5-.34-11-.34-16.48-.34H349.93V248.54H413.1V158.26h36.39C463.91,158.6,479,158.94,487.59,173ZM413.1,54.93h43.6c12.7.34,26.43.68,34.67,12.7,3.43,4.8,4.46,10,4.46,16.13a33.2,33.2,0,0,1-3.43,15.79c-7.21,13-21.28,13.39-34.33,13.74h-45Z"/><path class="cls-1" d="M754.2,248.54h64.88L729.48,6.18H666L576,248.54h64.2l15.44-44.28h83.42ZM670.09,158.6,697.9,74.49l26.77,84.11Z"/><path class="cls-1" d="M997.15,222.45l3.77,26.09h40.51V116.38H940.5V162h43.26c-2.06,14.08-8.24,22.66-12,26.78-5.49,5.84-17.5,14.76-37.76,14.76-12,0-24.71-3.09-34.33-11-25.4-19.57-24-58-24-64.54,0-37.08,12-55.27,26.78-65.23a49,49,0,0,1,28.49-8.92c12.7,0,22,3.77,26.09,6.18,14.76,8.24,18.54,23,19.57,28.15H1038c-.69-8.59-2.06-14.42-3.43-17.85a99.2,99.2,0,0,0-39.48-52.19A107.37,107.37,0,0,0,933.64,0a141.15,141.15,0,0,0-30.9,3.43,133.26,133.26,0,0,0-29.86,11,118.06,118.06,0,0,0-36,31.58c-17.51,23.35-25.4,52.87-25.4,81.7,0,57.33,26.43,89.26,45,104,26.43,20.6,57.33,22.66,68.31,22.66,32.62,0,53.21-13.73,62.83-22C991.65,229,993.37,226.57,997.15,222.45Z"/><polygon class="cls-1" points="20.77 222.69 88.61 222.69 88.61 199.66 20.77 199.66 20.77 173.79 1.21 173.79 1.21 248.57 20.77 248.57 20.77 222.69"/><polygon class="cls-1" points="88.61 141.77 52.46 141.77 52.46 113.17 88.61 113.17 88.61 90.27 1.21 90.27 1.21 113.17 32.4 113.17 32.4 141.77 1.21 141.77 1.21 164.79 88.61 164.79 88.61 141.77"/><polygon class="cls-1" points="88.61 6.18 69.42 6.18 69.42 53.35 52.34 53.35 52.34 11.26 34.63 11.26 34.63 53.35 19.65 53.35 19.65 7.29 1.21 7.29 1.21 76.13 88.61 76.13 88.61 6.18"/><path class="cls-1" d="M96.05,302.88q-11-6.42-25.46-6.42H48.65q-14.51,0-25.47,6.42A43.93,43.93,0,0,0,6.11,321.09Q0,332.9,0,348.42v44.29Q0,408.24,6.11,420a44,44,0,0,0,17.07,18.21,49.11,49.11,0,0,0,25.26,6.42H70.59a49,49,0,0,0,25.35-6.52,44.69,44.69,0,0,0,17.19-18.22q6.09-11.69,6.1-27.22V348.42q0-15.54-6.1-27.33A44,44,0,0,0,96.05,302.88Zm7.86,89.83q0,17.19-9.31,27.74T70.17,431H48.85q-15.1,0-24.32-10.56t-9.21-27.74V348.42q0-17.19,9.31-27.74t24.43-10.56H70.17q15.12,0,24.43,10.56t9.31,27.74Z"/><path class="cls-1" d="M237.84,367.05v-.21a28.58,28.58,0,0,0,9.73-11.08,31.74,31.74,0,0,0,3.52-14.59v-11a28.09,28.09,0,0,0-11.28-23.29q-11.28-8.79-29.7-8.8H148.83V429.56A12.78,12.78,0,0,0,162.29,443h58q18.42,0,29.19-10.24t10.76-27.22v-9.94a28.44,28.44,0,0,0-6.11-18.11A29.69,29.69,0,0,0,237.84,367.05Zm-73.69-55.27h46q11.37,0,18.52,5.07t7.14,13.35v11q0,10.14-5.9,16.25t-15.62,6.11h-50.1Zm80.73,93.77q0,10.76-7.14,17.28t-19.56,6.52h-54v-53h58.17q10.14,0,16.35,5.28a17.42,17.42,0,0,1,6.21,14Z"/><path class="cls-1" d="M380.46,377.08q-8.9-8.18-25-11.07l-37.06-6.42Q309,357.94,303.77,353a16.1,16.1,0,0,1-5.28-12.21V329.58a16.83,16.83,0,0,1,7-14.18q7-5.28,18.84-5.28h23.39q11,0,17.59,6.83T372,335.17h14.9q0-17.4-10.76-28.05t-28.36-10.66H324.37q-18.63,0-29.91,9t-11.29,24.12v11.18q0,12.83,8.7,21.32t24.42,11.17l37.26,6.21q9.52,1.46,15,6.42a15.62,15.62,0,0,1,5.49,12v13.25a17,17,0,0,1-7.46,14.38Q359.15,431,346.93,431H324q-12.42,0-20-8t-7.56-20.81h-14.9a45.56,45.56,0,0,0,5.28,22.26,37.11,37.11,0,0,0,14.8,14.9,44.47,44.47,0,0,0,21.94,5.28h23.8q18.84,0,30.43-9.21t11.6-24.32V397.89A27,27,0,0,0,380.46,377.08Z"/><path class="cls-1" d="M416.9,429.35q0,6.42,3.52,10t9.93,3.62h83.84V429.77h-82V375.53H508V362.28H432.21V311.36h82V298.11H416.9Z"/><path class="cls-1" d="M632.69,388a33.06,33.06,0,0,0-11.28-10.56v-.2a38.21,38.21,0,0,0,18.84-11.9,29.24,29.24,0,0,0,7-19.36V330.82q0-14.7-9.63-23.7t-25.56-9H541.71V443H557V381.74h42A23.32,23.32,0,0,1,614.68,388a33.17,33.17,0,0,1,10,16.35L636.11,443h15.73L640.45,404.3A55.83,55.83,0,0,0,632.69,388Zm-26-19.87H557v-56.3h54.65q9.11,0,14.7,5T632,330v15.94q0,9.93-6.94,16T606.71,368.08Z"/><path class="cls-1" d="M725.94,424.59h-.2L680.61,298.11H664.88l49.47,135.38a18,18,0,0,0,4.45,7.25,9.51,9.51,0,0,0,6.52,2.27h7.87L787,298.11H771.28Z"/><path class="cls-1" d="M808.74,429.35q0,6.42,3.52,10T822.2,443H906V429.77h-82V375.53h75.76V362.28H824.06V311.36h82V298.11H808.74Z"/><path class="cls-1" d="M1032.3,404.3a56.08,56.08,0,0,0-7.76-16.35,33.18,33.18,0,0,0-11.29-10.56v-.2a38.16,38.16,0,0,0,18.84-11.9,29.24,29.24,0,0,0,7-19.36V330.82q0-14.7-9.63-23.7t-25.56-9H933.56V443h15.32V381.74h42a23.32,23.32,0,0,1,15.63,6.21,33.24,33.24,0,0,1,10,16.35L1028,443h15.73Zm-33.74-36.22H948.88v-56.3h54.65q9.11,0,14.69,5t5.59,13.25v15.94q0,9.93-6.93,16T998.56,368.08Z"/></svg>