<svg xmlns="http://www.w3.org/2000/svg" xmlns:xlink="http://www.w3.org/1999/xlink" width="150" height="100.818" viewBox="0 0 150 100.818"><defs><path id="a" d="M0 0h150v100.818H0z"/></defs><clipPath id="b"><use xlink:href="#a" overflow="visible"/></clipPath><path clip-path="url(#b)" fill="#FFF" d="M148.519 46.61c-.055-.055-1.753-1.948-3.411-4.743-1.678-2.79-3.226-6.463-3.42-9.83-.363-5.78-2.132-9.991-4.077-12.711-.333-.474-.67-.9-1.002-1.283.018-.248.023-.501.027-.768a12.419 12.419 0 0 0-1.424-5.77c-1.052-2.026-2.753-3.932-5.021-5.492-3.103-2.167-6.499-2.981-9.314-2.961-2.281.022-4.191.46-5.659.967a16.3 16.3 0 0 0-1.839-.732c-1.732-.567-3.575-.815-5.407-.809-4.184.036-8.49 1.021-15.509 2.503-1.678.36-3.132.499-4.394.499-3.421-.016-5.475-.971-6.798-1.82a7.969 7.969 0 0 1-1.353-1.098c-.126-.129-.2-.218-.226-.248A5.617 5.617 0 0 0 75.153 0h-.311a5.603 5.603 0 0 0-4.535 2.305 4.959 4.959 0 0 1-.581.586 8.576 8.576 0 0 1-1.514 1.078c-1.336.751-3.276 1.499-6.285 1.51-1.261 0-2.714-.139-4.392-.499-7.022-1.482-11.328-2.466-15.514-2.503-1.837-.004-3.674.242-5.406.809-.637.209-1.248.455-1.838.729a17.885 17.885 0 0 0-5.659-.967c-2.817-.02-6.213.791-9.314 2.966-2.267 1.559-3.97 3.465-5.018 5.491a12.402 12.402 0 0 0-1.398 6.535c-.331.382-.667.809-1 1.283-1.944 2.721-3.715 6.932-4.075 12.711-.2 3.478-1.85 7.275-3.581 10.096a35.453 35.453 0 0 1-2.326 3.37c-.307.393-.558.689-.718.88l-.173.196a5.614 5.614 0 0 0-.031 7.633H1.48c.057.055 1.756 1.951 3.412 4.746 1.677 2.79 3.228 6.461 3.421 9.828.36 5.78 2.13 9.988 4.075 12.712.333.474.67.9 1 1.281-.016.246-.023.502-.026.763a12.461 12.461 0 0 0 1.421 5.773c1.05 2.027 2.751 3.934 5.022 5.494 3.102 2.169 6.497 2.98 9.313 2.963a17.919 17.919 0 0 0 5.656-.968c.593.274 1.206.521 1.841.729 1.73.568 3.57.812 5.403.807 4.188-.033 8.492-1.019 15.517-2.504 1.681-.359 3.132-.496 4.39-.496 3.418.013 5.474.972 6.798 1.822a7.984 7.984 0 0 1 1.354 1.097c.127.129.202.22.228.25a5.57 5.57 0 0 0 1.992 1.696 5.577 5.577 0 0 0 2.547.613h.311c1.797 0 3.48-.859 4.534-2.307l.003-.003.006-.004c.109-.137.799-.925 2.086-1.657 1.336-.748 3.276-1.498 6.287-1.508 1.262 0 2.713.137 4.393.496 7.022 1.488 11.323 2.471 15.513 2.505 1.832.003 3.674-.24 5.401-.81a16.578 16.578 0 0 0 1.843-.728 17.96 17.96 0 0 0 5.659.967c2.814.021 6.211-.794 9.312-2.961 2.272-1.562 3.974-3.469 5.022-5.492a12.441 12.441 0 0 0 1.424-5.775c-.004-.264-.01-.517-.027-.761.332-.386.669-.812 1.002-1.282 1.943-2.726 3.714-6.935 4.077-12.717.196-3.478 1.848-7.272 3.581-10.093a33.927 33.927 0 0 1 3.046-4.245c.081-.093.144-.161.174-.199a.058.058 0 0 1 .021-.021l.009-.013c.988-1.074 1.481-2.435 1.481-3.798s-.495-2.726-1.483-3.799m-1.383 6.338l-.044.048c-.041.047-.106.12-.196.225-.18.209-.445.53-.773.945a36.768 36.768 0 0 0-2.454 3.549c-1.82 2.978-3.612 7.011-3.848 10.946-.345 5.471-1.994 9.311-3.735 11.751a15.482 15.482 0 0 1-1.416 1.72c.06.43.093.903.094 1.409.088 2.887-1.463 6.941-5.636 9.729-2.785 1.939-5.753 2.64-8.249 2.629a15.803 15.803 0 0 1-5.756-1.132c-2.155 1.116-4.562 1.745-7.147 1.701-3.839-.025-8.107-.975-15.12-2.462-1.804-.387-3.386-.537-4.785-.54-6.574.02-9.356 3.342-9.832 3.862l-.011.007a3.75 3.75 0 0 1-3.073 1.607h-.311a3.751 3.751 0 0 1-3.077-1.607l-.011-.007a5.225 5.225 0 0 0-.335-.374 9.968 9.968 0 0 0-1.67-1.361c-1.58-1.021-4.025-2.119-7.825-2.126-1.397.002-2.983.155-4.78.541-7.017 1.487-11.289 2.438-15.125 2.461-2.585.043-4.993-.584-7.146-1.7a15.825 15.825 0 0 1-5.755 1.129c-2.495.013-5.465-.687-8.249-2.627-4.174-2.787-5.722-6.845-5.638-9.733.003-.506.036-.977.093-1.409a14.49 14.49 0 0 1-1.412-1.717c-1.741-2.443-3.394-6.28-3.736-11.751-.225-3.688-1.804-7.464-3.511-10.376-1.691-2.912-3.451-4.945-3.76-5.289-.041-.045-.041-.048-.041-.048a3.732 3.732 0 0 1 0-5.078l.041-.047c.04-.047.109-.121.194-.227.179-.206.447-.527.776-.944a36.308 36.308 0 0 0 2.45-3.548c1.82-2.979 3.615-7.012 3.851-10.95.344-5.468 1.997-9.307 3.736-11.749.479-.677.959-1.246 1.412-1.716-.058-.431-.09-.903-.093-1.411-.084-2.888 1.463-6.943 5.635-9.725 2.785-1.944 5.755-2.646 8.251-2.634 2.401.02 4.369.576 5.755 1.13 2.154-1.116 4.564-1.744 7.149-1.701 3.834.024 8.108.971 15.121 2.462 1.799.385 3.388.539 4.785.542 6.573-.02 9.354-3.34 9.827-3.864l.012-.009a3.751 3.751 0 0 1 3.078-1.607h.31c1.226 0 2.374.603 3.074 1.607l.011.007c.061.072.17.203.335.374.334.344.886.846 1.671 1.361 1.575 1.021 4.021 2.118 7.824 2.127 1.397-.002 2.984-.156 4.782-.542 7.016-1.489 11.283-2.438 15.12-2.462 2.586-.04 4.992.584 7.149 1.701a15.866 15.866 0 0 1 5.759-1.13c2.494-.013 5.465.69 8.251 2.632 4.17 2.782 5.72 6.839 5.634 9.727-.002.507-.036.981-.096 1.411a14.74 14.74 0 0 1 1.416 1.719c1.741 2.44 3.394 6.279 3.736 11.751.224 3.689 1.807 7.463 3.51 10.376 1.691 2.912 3.455 4.947 3.762 5.289.042.047.044.047.044.047a3.75 3.75 0 0 1-.002 5.081"/><defs><path id="c" d="M0 0h150v100.818H0z"/></defs><clipPath id="d"><use xlink:href="#c" overflow="visible"/></clipPath><path clip-path="url(#d)" fill="#FFF" d="M145.989 48.926s-.085-.09-.278-.315c-1.374-1.545-7.015-8.783-7.446-16.354-.441-7.375-3.394-11.293-5.269-13.03.12-.548.207-1.205.211-1.951.05-2.46-1.174-5.881-4.967-8.444-2.516-1.75-5.131-2.361-7.36-2.354a14.126 14.126 0 0 0-5.841 1.31c-2.138-1.248-4.413-1.909-7.067-1.88-3.544.013-7.789.935-14.791 2.426-1.899.408-3.601.575-5.111.575-4.115-.004-6.887-1.213-8.681-2.382a11.381 11.381 0 0 1-1.932-1.577 8.562 8.562 0 0 1-.429-.474 1.562 1.562 0 0 0-.081-.106 2.177 2.177 0 0 0-1.792-.94h-.312c-.717 0-1.384.35-1.794.935-.25.294-3.462 4.534-11.121 4.542-1.513 0-3.211-.167-5.111-.575-7.006-1.492-11.252-2.413-14.795-2.427-2.652-.028-4.925.633-7.063 1.88a14.105 14.105 0 0 0-5.841-1.307c-2.229-.008-4.845.599-7.362 2.352-3.795 2.566-5.016 5.983-4.965 8.444.003.748.09 1.405.209 1.951-1.875 1.736-4.827 5.654-5.267 13.03-.27 4.322-2.18 8.549-4.072 11.655a37.693 37.693 0 0 1-2.561 3.7c-.341.438-.623.775-.814.998-.193.225-.279.316-.279.316a2.185 2.185 0 0 0 0 2.965s.086.09.279.315c1.37 1.548 7.016 8.783 7.447 16.354.439 7.376 3.392 11.294 5.267 13.03a9.337 9.337 0 0 0-.209 1.947c-.052 2.462 1.168 5.882 4.965 8.45 2.517 1.751 5.132 2.359 7.362 2.35a14.217 14.217 0 0 0 5.841-1.307c2.135 1.245 4.412 1.907 7.061 1.88 3.546-.013 7.789-.935 14.797-2.431 1.9-.404 3.597-.573 5.108-.573 4.115.006 6.889 1.216 8.68 2.382a11.605 11.605 0 0 1 1.935 1.58c.202.207.344.372.43.477.037.052.066.087.08.105a2.18 2.18 0 0 0 1.794.938h.312c.712 0 1.381-.35 1.79-.938.127-.147.99-1.281 2.785-2.378 1.792-1.098 4.508-2.161 8.342-2.164 1.514 0 3.209.169 5.108.573 7.006 1.497 11.25 2.417 14.794 2.43 2.653.028 4.927-.634 7.064-1.88a14.199 14.199 0 0 0 5.841 1.312c2.227.004 4.844-.604 7.36-2.354 3.793-2.568 5.017-5.986 4.967-8.446a9.365 9.365 0 0 0-.211-1.95c1.875-1.736 4.827-5.654 5.269-13.03.267-4.319 2.179-8.549 4.072-11.656a38.278 38.278 0 0 1 2.558-3.7c.344-.438.624-.776.816-.998.193-.227.278-.316.278-.316a2.185 2.185 0 0 0 0-2.965m-.688 2.329c0 .006-.438.477-1.144 1.373-.703.897-1.652 2.2-2.622 3.793-1.937 3.183-3.918 7.528-4.205 12.08-.479 7.752-3.745 11.417-5.383 12.761.165.569.321 1.35.324 2.278.025 2.206-.996 5.244-4.565 7.676-2.356 1.634-4.763 2.19-6.828 2.185-2.7-.009-4.828-.894-5.889-1.438-2.165 1.352-4.316 2.028-7.015 2.009-3.368-.009-7.596-.91-14.6-2.406-1.96-.423-3.721-.595-5.303-.595-7.509.007-11.044 3.911-11.767 4.782-.102.124-.128.16-.128.16a1.24 1.24 0 0 1-1.021.536h-.312c-.41 0-.794-.199-1.027-.536-.004 0-.026-.037-.124-.16-.1-.12-.261-.31-.483-.537a12.31 12.31 0 0 0-2.093-1.708c-1.92-1.254-4.886-2.531-9.192-2.537-1.581 0-3.342.176-5.302.595-7.008 1.493-11.234 2.397-14.604 2.406-2.697.017-4.851-.659-7.012-2.009-1.062.544-3.188 1.43-5.889 1.438-2.068.004-4.473-.551-6.829-2.185-3.568-2.435-4.592-5.474-4.563-7.68a8.126 8.126 0 0 1 .324-2.274c-1.634-1.344-4.902-5.006-5.381-12.761-.421-6.825-4.703-13.184-6.828-15.873-.706-.897-1.143-1.371-1.143-1.373a1.243 1.243 0 0 1 0-1.692c0-.002.437-.474 1.143-1.37A38.865 38.865 0 0 0 8.462 44.4c1.937-3.188 3.92-7.532 4.208-12.082.479-7.755 3.747-11.417 5.38-12.762a8.35 8.35 0 0 1-.323-2.277c-.029-2.204.995-5.242 4.562-7.677 2.357-1.637 4.762-2.19 6.83-2.188 2.701.01 4.826.895 5.889 1.439 2.16-1.353 4.315-2.026 7.015-2.008 3.368.007 7.596.911 14.598 2.404 1.961.419 3.724.596 5.309.596 7.509-.005 11.04-3.91 11.764-4.781.101-.124.124-.159.124-.159a1.25 1.25 0 0 1 1.027-.536h.312c.406 0 .79.199 1.021.536.003 0 .026.036.128.159.098.124.259.307.48.539a12.138 12.138 0 0 0 2.092 1.708c1.919 1.254 4.886 2.531 9.191 2.534 1.582 0 3.346-.173 5.307-.596 7.001-1.493 11.229-2.396 14.602-2.404 2.696-.018 4.853.656 7.013 2.008a13.226 13.226 0 0 1 5.89-1.439c2.067-.004 4.473.551 6.829 2.188 3.566 2.432 4.588 5.468 4.563 7.677a8.317 8.317 0 0 1-.323 2.277c1.633 1.344 4.901 5.007 5.382 12.762.42 6.828 4.702 13.188 6.829 15.875.703.898 1.144 1.37 1.144 1.37.44.476.44 1.215-.004 1.692"/><defs><path id="e" d="M0 0h150v100.818H0z"/></defs><clipPath id="f"><use xlink:href="#e" overflow="visible"/></clipPath><path clip-path="url(#f)" fill="#FFF" d="M48.793 64.024h-4.057v-5.722h1.244v4.578h2.813z"/><defs><path id="g" d="M0 0h150v100.818H0z"/></defs><clipPath id="h"><use xlink:href="#g" overflow="visible"/></clipPath><path clip-path="url(#h)" fill="#FFF" d="M54.423 58.26h-1.146l-2.421 5.764h1.268l.516-1.282h2.39l.517 1.282h1.298l-2.422-5.764zm-1.34 3.367l.749-1.854.75 1.854h-1.499z"/><defs><path id="i" d="M0 0h150v100.818H0z"/></defs><clipPath id="j"><use xlink:href="#i" overflow="visible"/></clipPath><path clip-path="url(#j)" fill="#FFF" d="M61.604 64.12c-1.66 0-2.894-1.298-2.894-2.942v-.016c0-1.627 1.208-2.961 2.943-2.961 1.064 0 1.701.36 2.226.883l-.791.925c-.435-.401-.88-.647-1.443-.647-.951 0-1.637.803-1.637 1.781v.02c0 .979.67 1.796 1.637 1.796.646 0 1.041-.26 1.484-.67l.791.812c-.58.627-1.225 1.019-2.316 1.019"/><defs><path id="k" d="M0 0h150v100.818H0z"/></defs><clipPath id="l"><use xlink:href="#k" overflow="visible"/></clipPath><path clip-path="url(#l)" fill="#FFF" d="M70.171 64.024l-1.751-2.436-.653.687v1.749h-1.244v-5.722h1.244v2.502l2.291-2.502h1.498l-2.298 2.428 2.404 3.294z"/><defs><path id="m" d="M0 0h150v100.818H0z"/></defs><clipPath id="n"><use xlink:href="#m" overflow="visible"/></clipPath><path clip-path="url(#n)" fill="#FFF" d="M79.201 72.778c0 2.503-1.386 3.731-3.577 3.731-2.195 0-3.538-1.243-3.538-3.675v-4.723h1.797v4.676c0 1.349.664 2.044 1.761 2.044 1.098 0 1.763-.673 1.763-1.984v-4.735h1.795v4.666z"/><defs><path id="o" d="M0 0h150v100.818H0z"/></defs><clipPath id="p"><use xlink:href="#o" overflow="visible"/></clipPath><path clip-path="url(#p)" fill="#FFF" d="M77.667 63.191l.733-.892c.511.427 1.043.696 1.687.696.51 0 .813-.203.813-.54v-.015c0-.318-.19-.481-1.136-.727-1.137-.296-1.872-.613-1.872-1.751v-.016c0-1.038.822-1.725 1.976-1.725.823 0 1.523.262 2.098.727l-.645.948c-.5-.353-.992-.562-1.469-.562-.475 0-.727.219-.727.495v.018c0 .376.243.5 1.217.753 1.146.303 1.791.72 1.791 1.718v.016c0 1.135-.854 1.773-2.073 1.773a3.567 3.567 0 0 1-2.393-.916"/><defs><path id="q" d="M0 0h150v100.818H0z"/></defs><clipPath id="r"><use xlink:href="#q" overflow="visible"/></clipPath><path clip-path="url(#r)" fill="#FFF" d="M89.197 76.375h-1.784v-5.394l-2.299 3.533h-.048l-2.272-3.497v5.358h-1.761v-8.263h1.934l2.147 3.495 2.147-3.495h1.936z"/><defs><path id="s" d="M0 0h150v100.818H0z"/></defs><clipPath id="t"><use xlink:href="#s" overflow="visible"/></clipPath><path clip-path="url(#t)" fill="#FFF" d="M91.884 58.302h1.24v5.722h-1.24z"/><defs><path id="u" d="M0 0h150v100.818H0z"/></defs><clipPath id="v"><use xlink:href="#u" overflow="visible"/></clipPath><path clip-path="url(#v)" fill="#FFF" d="M98.792 64.12c-1.66 0-2.895-1.298-2.895-2.942v-.016c0-1.627 1.209-2.961 2.942-2.961 1.065 0 1.701.36 2.226.883l-.79.925c-.433-.401-.879-.647-1.442-.647-.951 0-1.637.803-1.637 1.781v.02c0 .979.67 1.796 1.637 1.796.643 0 1.039-.26 1.483-.67l.79.812c-.578.627-1.225 1.019-2.314 1.019"/><defs><path id="w" d="M0 0h150v100.818H0z"/></defs><clipPath id="x"><use xlink:href="#w" overflow="visible"/></clipPath><path clip-path="url(#x)" fill="#FFF" d="M108.01 64.024h-4.3v-5.722h4.262v1.118h-3.027v1.162h2.662v1.119h-2.662v1.203h3.065z"/><defs><path id="y" d="M0 0h150v100.818H0z"/></defs><clipPath id="z"><use xlink:href="#y" overflow="visible"/></clipPath><path clip-path="url(#z)" fill="#FFF" d="M112.928 58.302h-2.202v5.722h2.202c1.773 0 3.003-1.25 3.003-2.859v-.021c0-1.607-1.23-2.842-3.003-2.842m1.701 2.878c0 1.014-.684 1.708-1.701 1.708h-.96v-3.45h.96c1.018 0 1.701.711 1.701 1.727v.015z"/><defs><path id="A" d="M0 0h150v100.818H0z"/></defs><clipPath id="B"><use xlink:href="#A" overflow="visible"/></clipPath><path clip-path="url(#B)" fill="#FFF" d="M87.136 58.302H84.83v5.722h1.24v-1.717h.944c1.267 0 2.281-.686 2.281-2.009v-.018c.001-1.169-.815-1.978-2.159-1.978m.901 2.019c0 .492-.362.866-.982.866h-.985v-1.748h.958c.62 0 1.009.303 1.009.867v.015z"/><defs><path id="C" d="M0 0h150v100.818H0z"/></defs><clipPath id="D"><use xlink:href="#C" overflow="visible"/></clipPath><path clip-path="url(#D)" fill="#FFF" d="M68.85 73.427c1.037-.391 1.748-1.229 1.748-2.565v-.024c0-.779-.243-1.426-.7-1.887-.536-.543-1.34-.841-2.38-.841h-3.732v8.266h1.797v-2.644h1.411l1.751 2.644h2.098l-1.993-2.949zm-.073-2.47c0 .698-.501 1.169-1.375 1.169h-1.82v-2.374h1.786c.874 0 1.41.404 1.41 1.182l-.001.023z"/><defs><path id="E" d="M0 0h150v100.818H0z"/></defs><clipPath id="F"><use xlink:href="#E" overflow="visible"/></clipPath><path clip-path="url(#F)" fill="#FFF" d="M87.461 30.827c-.358.375-.883.851-1.296 1.182-.942.734-1.687 1.008-1.99 1.021-.305.013-.454-.146-.402-.506.025-.169.113-.387.188-.508.531-.121 1.496-.475 2.119-.836.646-.387 1.366-.897 1.496-1.544.076-.411-.159-.734-.85-.7l-.019.003c-.748.033-1.533.333-2.428.871a11.674 11.674 0 0 0-1.497 1.162l-.09.084c-.223.222-.804.799-1.107 1.072a7.833 7.833 0 0 1-.881.686c-.188.129-.408.209-.493.142-.101-.091-.057-.284.116-.555.154-.243.363-.516.714-.982.373-.495.801-1.061.902-1.495.089-.479-.156-.754-.714-.727-.956.044-2.1.977-2.73 1.53a52.87 52.87 0 0 0-1.913 1.778l-.03-.045c1.007-1.451 1.78-2.584 2.274-3.224.38-.398 2.996-2.449 4.382-3.583 2.052-1.715 4.024-3.782 4.312-5.248.093-.503-.065-.853-.469-.834-.535.027-1.246.344-2.172 1.075-1.375 1.112-3.405 3.038-5.528 5.731a120.681 120.681 0 0 0-2.744 3.628c-.558.55-1.088 1.051-1.465 1.426-.029.028-.054.057-.08.085-.029.024-.051.047-.074.064-.267.274-.55.525-.913.803-1.259.939-2.301 1.181-3.935 1.304-1.422.09-2.542-.05-2.956-.074l.004-.027c1.329-.37 3.211-1.292 4.898-2.965 1.24-1.199 1.73-2.244 2.726-3.459.693-.839 1.376-1.373 1.766-1.556.202-.081.388-.043.481-.047 2.036-.023 3.656-1.078 4.021-2.808.293-1.368-.688-2.204-2.104-2.136-1.209.054-2.274.724-2.848 1.536-.193.271-.33.563-.427.826-.067.221-.062.316-.023.312.038-.003.078-.146.138-.293.119-.29.244-.511.403-.708a3.726 3.726 0 0 1 2.671-1.36l.021-.001c1.434-.064 2.201.804 1.911 1.887-.297 1.131-1.729 1.7-3.341 1.654-1.23-.016-2.457-.243-3.198-.352-.97-.145-2.322-.367-3.76-.3-2.371.088-3.976 1.448-4.345 3.201-.263 1.297.479 2.074 1.6 2.093 1.236.014 2.731-.748 2.924-1.803a.835.835 0 0 0-.305-.796c-.082-.067-.262-.152-.304-.104-.044.026.008.073.047.189.072.164.063.474.016.689-.251.94-1.164 1.602-2.324 1.607-1.008 0-1.684-.729-1.432-1.813.32-1.419 1.717-2.125 3.245-2.294 1.189-.08 3.022.123 4.168.355.979.191 1.706.3 2.34.388l-.006.026c-1.049.287-2.627 1.214-3.979 2.684-1.299 1.466-1.952 2.426-3.255 3.698-.954.926-1.471 1.354-2.245 1.579a14.302 14.302 0 0 0-2.75-.181c-.747.037-1.734.296-1.882.781-.14.434.319.437 1.938.29a24.78 24.78 0 0 0 1.82-.228c.859.104 2.218.182 3.938.101 1.781-.084 3.015-.593 4.364-1.63.335-.263.672-.578.915-.819a.463.463 0 0 0 .067-.062c.221-.22.693-.721 1.093-1.119l.014.02c-.212.273-.513.667-.826 1.109-.408.59-.78 1.183-1.015 1.643-.163.34-.101.434.518.358.214-.033.755-.085.93-.259.923-.853 1.48-1.403 2.444-2.279.547-.504 1.09-.955 1.486-1.213.292-.181.514-.265.62-.22.106.042.087.186-.006.31-.26.347-.609.789-.939 1.21-.514.667-.729.963-.845 1.374-.117.431-.108 1.027.812.963.713-.057 1.546-.694 2.024-1.094a34.897 34.897 0 0 0 1.456-1.402l.006-.007c.006-.004.011-.013.017-.016l.018.023c-.321.371-.58.835-.641 1.264-.086.6.094 1.188 1.349 1.058.813-.086 1.668-.483 2.549-1.19.54-.431.98-.857 1.247-1.129.225-.225.317-.346.29-.418-.035-.052-.091-.047-.222.074m-2.273-.581c.667-.794 1.067-1.053 1.276-1.06.17-.007.206.135.137.353-.101.313-.493.927-1.062 1.427-.583.503-1.112.744-1.446.806.255-.463.568-.909 1.095-1.526m-2.748-5.847c1.165-1.482 2.125-2.718 2.894-3.54.533-.571 1.148-1.005 1.436-1.018.248-.01.327.129.241.441-.236.963-2.038 3.07-4.203 5.121-1.013.952-3.001 2.733-3.744 3.415a153.937 153.937 0 0 1 3.376-4.419"/><defs><path id="G" d="M0 0h150v100.818H0z"/></defs><clipPath id="H"><use xlink:href="#G" overflow="visible"/></clipPath><path clip-path="url(#H)" fill="#FFF" d="M32.831 52.937l-4.879-6.062-1.003.96v5.102h-2.898V38.958h2.898v4.966l5.195-4.966h4.097l-6.203 5.923 6.447 8.056z"/><defs><path id="I" d="M0 0h150v100.818H0z"/></defs><clipPath id="J"><use xlink:href="#I" overflow="visible"/></clipPath><path clip-path="url(#J)" fill="#FFF" d="M85.942 52.937l-4.88-6.062-1.004.96v5.102h-2.899V38.958h2.899v4.966l5.196-4.966h4.096l-6.205 5.923 6.447 8.056z"/><defs><path id="K" d="M0 0h150v100.818H0z"/></defs><clipPath id="L"><use xlink:href="#K" overflow="visible"/></clipPath><path clip-path="url(#L)" fill="#FFF" d="M95.495 38.958h9.141v2.766h-6.247v2.765h5.793v2.77h-5.793v2.908h6.706v2.77h-9.6z"/><defs><path id="M" d="M0 0h150v100.818H0z"/></defs><clipPath id="N"><use xlink:href="#M" overflow="visible"/></clipPath><path clip-path="url(#N)" fill="#FFF" d="M125.026 53.37l-10.666-8.808v8.375h-2.894v-14.42l10.668 8.809v-8.368h2.892z"/><defs><path id="O" d="M0 0h150v100.818H0z"/></defs><clipPath id="P"><use xlink:href="#O" overflow="visible"/></clipPath><path clip-path="url(#P)" fill="#FFF" d="M65.105 38.523L58.05 52.937h3.198l.854-1.748h6.006l.856 1.748h3.195l-7.054-14.414zm-1.645 9.899l1.647-3.371 1.649 3.371H63.46z"/><defs><path id="Q" d="M0 0h150v100.818H0z"/></defs><clipPath id="R"><use xlink:href="#Q" overflow="visible"/></clipPath><path clip-path="url(#R)" fill="#FFF" d="M52.693 45.595a4.081 4.081 0 0 0 .666-2.27c0-1.203-.447-2.231-1.342-3.088-.895-.853-1.97-1.279-3.23-1.279h-6.402v13.977h2.896v-5.24h2.73l2.224 5.24h3.125l-2.439-5.752a4.349 4.349 0 0 0 1.772-1.588m-2.72-1.135a1.65 1.65 0 0 1-1.187.468h-3.507v-3.204h3.507c.464 0 .863.154 1.187.467.328.31.488.687.488 1.135 0 .446-.159.825-.488 1.134"/><defs><path id="S" d="M0 0h150v100.818H0z"/></defs><clipPath id="T"><use xlink:href="#S" overflow="visible"/></clipPath><path clip-path="url(#T)" fill="#FFF" d="M127.363 39.39a.953.953 0 0 1 .508-.494.927.927 0 0 1 .367-.071.937.937 0 0 1 .87 1.312.969.969 0 0 1-.205.3.845.845 0 0 1-.299.196.92.92 0 0 1-.366.073.928.928 0 0 1-.367-.073.89.89 0 0 1-.302-.196.955.955 0 0 1-.206-.3.91.91 0 0 1-.075-.377.851.851 0 0 1 .075-.37m.156.691a.733.733 0 0 0 .163.256c.069.073.152.13.246.17a.78.78 0 0 0 .311.061.757.757 0 0 0 .712-.487.841.841 0 0 0 .06-.321.795.795 0 0 0-.06-.314.773.773 0 0 0-1.432 0 .817.817 0 0 0-.061.314c0 .116.021.225.061.321m.776-.867c.131 0 .228.025.291.078.064.053.096.131.096.237 0 .1-.028.172-.083.219a.37.37 0 0 1-.207.081l.315.486h-.185l-.3-.475h-.183v.475h-.172v-1.102h.428zm-.075.489c.038 0 .075 0 .11-.003a.35.35 0 0 0 .093-.021.142.142 0 0 0 .062-.054.18.18 0 0 0 .025-.103.17.17 0 0 0-.022-.087.149.149 0 0 0-.055-.051.262.262 0 0 0-.079-.026.635.635 0 0 0-.087-.005h-.228v.35h.181z"/><defs><path id="U" d="M0 0h150v100.818H0z"/></defs><clipPath id="V"><use xlink:href="#U" overflow="visible"/></clipPath><path clip-path="url(#V)" fill="#FFF" d="M41.045 61.033c.403-.228.741-.588.741-1.235v-.016c0-.392-.126-.711-.388-.974-.32-.326-.83-.507-1.473-.507h-2.621v5.722h2.682c1.277 0 2.116-.523 2.116-1.57v-.013c0-.77-.404-1.154-1.057-1.407m-2.532-1.627h1.227c.524 0 .814.21.814.588v.016c0 .426-.347.606-.895.606h-1.146v-1.21zm2.356 2.891c0 .427-.331.625-.881.625h-1.474v-1.259h1.435c.636 0 .92.235.92.62v.014z"/></svg>