<?xml version="1.0" encoding="UTF-8" standalone="no"?>
<svg
   xmlns:dc="http://purl.org/dc/elements/1.1/"
   xmlns:cc="http://creativecommons.org/ns#"
   xmlns:rdf="http://www.w3.org/1999/02/22-rdf-syntax-ns#"
   xmlns:svg="http://www.w3.org/2000/svg"
   xmlns="http://www.w3.org/2000/svg"
   xmlns:sodipodi="http://sodipodi.sourceforge.net/DTD/sodipodi-0.dtd"
   xmlns:inkscape="http://www.inkscape.org/namespaces/inkscape"
   version="1.1"
   id="Magnifying_glass"
   x="0px"
   y="0px"
   viewBox="0 0 15.799767 15.79825"
   enable-background="new 0 0 20 20"
   xml:space="preserve"
   sodipodi:docname="magnifying-glass.svg"
   width="15.799767"
   height="15.79825"
   inkscape:version="1.0.2 (e86c8708, 2021-01-15)"><metadata
   id="metadata89"><rdf:RDF><cc:Work
       rdf:about=""><dc:format>image/svg+xml</dc:format><dc:type
         rdf:resource="http://purl.org/dc/dcmitype/StillImage" /><dc:title></dc:title></cc:Work></rdf:RDF></metadata><defs
   id="defs87" /><sodipodi:namedview
   pagecolor="#ffffff"
   bordercolor="#666666"
   borderopacity="1"
   objecttolerance="10"
   gridtolerance="10"
   guidetolerance="10"
   inkscape:pageopacity="0"
   inkscape:pageshadow="2"
   inkscape:window-width="1440"
   inkscape:window-height="847"
   id="namedview85"
   showgrid="false"
   inkscape:zoom="31.95"
   inkscape:cx="7.9"
   inkscape:cy="7.8990003"
   inkscape:window-x="0"
   inkscape:window-y="25"
   inkscape:window-maximized="0"
   inkscape:current-layer="Magnifying_glass" />
<path
   fill="#ffffff"
   d="M 15.445,13.366 11.666,9.5870003 c 0.57,-0.935 0.898,-2.035 0.898,-3.21 C 12.564,2.9600003 9.603,2.7067289e-7 6.186,2.7067289e-7 2.769,-9.9972933e-4 0,2.7690003 0,6.1860003 0,9.6020003 2.961,12.563 6.377,12.563 c 1.137,0 2.2,-0.309 3.115,-0.844 l 3.799,3.801 c 0.372,0.371 0.975,0.371 1.346,0 l 0.943,-0.943 c 0.371,-0.371 0.236,-0.84 -0.135,-1.211 z M 1.904,6.1860003 c 0,-2.366 1.917,-4.283 4.282,-4.283 2.366,0 4.474,2.107 4.474,4.474 C 10.66,8.7420003 8.742,10.66 6.377,10.66 4.011,10.659 1.904,8.5510003 1.904,6.1860003 Z"
   id="path82" />
</svg>
