<?xml version="1.0" encoding="UTF-8" standalone="no"?>
<svg
   xmlns:dc="http://purl.org/dc/elements/1.1/"
   xmlns:cc="http://creativecommons.org/ns#"
   xmlns:rdf="http://www.w3.org/1999/02/22-rdf-syntax-ns#"
   xmlns:svg="http://www.w3.org/2000/svg"
   xmlns="http://www.w3.org/2000/svg"
   xmlns:sodipodi="http://sodipodi.sourceforge.net/DTD/sodipodi-0.dtd"
   xmlns:inkscape="http://www.inkscape.org/namespaces/inkscape"
   version="1.1"
   id="layer"
   x="0px"
   y="0px"
   viewBox="-153 -46 600 79.099998"
   xml:space="preserve"
   sodipodi:docname="penske-media-corporation-pmc-vector-logo.svg"
   width="600"
   height="79.099998"
   inkscape:version="1.0.2 (e86c8708, 2021-01-15)"><metadata
   id="metadata21"><rdf:RDF><cc:Work
       rdf:about=""><dc:format>image/svg+xml</dc:format><dc:type
         rdf:resource="http://purl.org/dc/dcmitype/StillImage" /></cc:Work></rdf:RDF></metadata><defs
   id="defs19" /><sodipodi:namedview
   pagecolor="#ffffff"
   bordercolor="#666666"
   borderopacity="1"
   objecttolerance="10"
   gridtolerance="10"
   guidetolerance="10"
   inkscape:pageopacity="0"
   inkscape:pageshadow="2"
   inkscape:window-width="1440"
   inkscape:window-height="847"
   id="namedview17"
   showgrid="false"
   inkscape:zoom="0.40424832"
   inkscape:cx="-361.02766"
   inkscape:cy="-143.67189"
   inkscape:window-x="0"
   inkscape:window-y="25"
   inkscape:window-maximized="0"
   inkscape:current-layer="layer" />
<style
   type="text/css"
   id="style10">
	.st0{fill:#EC1C24;}
</style>
<path
   d="M 446.9,33.1 H 313.8 C 294.5,33.1 279.9,26 279.9,8.3 V -19.9 C 279.9,-38 291.8,-46 314.7,-46 H 447 v 11.1 H 314.8 c -12.3,0 -21.7,3.4 -21.7,15.3 V 7.5 c 0,9.3 7.6,14.6 20.2,14.6 H 446.8 Z M 243.8,-30.2 v 63.3 h -13.7 v -56.3 c 0,0 13.7,-7 13.7,-7 z m -195.7,0 v 63.3 h 13.7 v -56.3 c 0,0 -13.7,-7 -13.7,-7 z m 0,-15.7 H 60.4 L 146,0 233.8,-45.9 h 10 v 6.6 L 154,7.8 c -5.6,3 -20.7,-1.3 -20.7,-1.3 L 48.1,-38.4 Z m -35.5,28.4 c 0,12 -11.7,18 -25.3,18 H -139.3 V 33.1 H -153 v -43.4 h 141 c 7.5,0 11.4,-2.5 11.3,-8.7 v -7.5 c 0,-6.6 -3.5,-8.2 -11.2,-8.2 h -141 V -46 h 142.3 c 12.7,0 23.2,4.3 23.2,15.8 z"
   id="path12" />
<path
   class="st0"
   d="M 243.8,-39.4 V -46 h -10.1 l -100.4,52.5 2.3,1.2 c 5.8,3 12.7,3 18.5,0 l 2.5,-1.3 z"
   id="path14" />
</svg>
