<?xml version="1.0" encoding="UTF-8" standalone="no"?>
<svg
   xmlns:dc="http://purl.org/dc/elements/1.1/"
   xmlns:cc="http://creativecommons.org/ns#"
   xmlns:rdf="http://www.w3.org/1999/02/22-rdf-syntax-ns#"
   xmlns:svg="http://www.w3.org/2000/svg"
   xmlns="http://www.w3.org/2000/svg"
   xmlns:sodipodi="http://sodipodi.sourceforge.net/DTD/sodipodi-0.dtd"
   xmlns:inkscape="http://www.inkscape.org/namespaces/inkscape"
   version="1.1"
   id="Tone-deaf-combo-mark-002"
   x="0px"
   y="0px"
   viewBox="0 0 1465.035 257.14999"
   xml:space="preserve"
   sodipodi:docname="The-Brag_combo.svg"
   width="1465.035"
   height="257.14999"
   inkscape:version="1.0.2 (e86c8708, 2021-01-15)"><metadata
   id="metadata59"><rdf:RDF><cc:Work
       rdf:about=""><dc:format>image/svg+xml</dc:format><dc:type
         rdf:resource="http://purl.org/dc/dcmitype/StillImage" /></cc:Work></rdf:RDF></metadata><defs
   id="defs57" /><sodipodi:namedview
   pagecolor="#ffffff"
   bordercolor="#666666"
   borderopacity="1"
   objecttolerance="10"
   gridtolerance="10"
   guidetolerance="10"
   inkscape:pageopacity="0"
   inkscape:pageshadow="2"
   inkscape:window-width="1905"
   inkscape:window-height="1027"
   id="namedview55"
   showgrid="false"
   inkscape:zoom="0.57135417"
   inkscape:cx="732.515"
   inkscape:cy="128.57"
   inkscape:window-x="0"
   inkscape:window-y="25"
   inkscape:window-maximized="0"
   inkscape:current-layer="Tone-deaf-combo-mark-002" />
<style
   type="text/css"
   id="style10">
	.st0{fill:#FF8776;}
	.st1{fill:#0F0C0C;}
</style>
<g
   id="g52"
   transform="translate(-227.485,-411.43)">
	<g
   id="g18">
		<path
   class="st0"
   d="m 385.77,518 c 0,-3.66 -2.97,-6.63 -6.63,-6.63 h -39.16 v 13.27 h 39.16 c 3.66,-0.01 6.63,-2.98 6.63,-6.64 z"
   id="path12" />
		<path
   class="st0"
   d="m 386.71,544.29 h -46.74 v 17 h 46.74 c 4.7,0 8.5,-3.81 8.5,-8.5 v 0 c 0.01,-4.69 -3.8,-8.5 -8.5,-8.5 z"
   id="path14" />
		<path
   class="st0"
   d="m 483.88,471.48 c -3.65,-24.41 -30.98,-50.34 -56.43,-54.65 -47.09,-7.2 -91.6,-7.2 -138.69,0 -25.45,4.31 -52.78,30.24 -56.43,54.65 -6.46,45.45 -6.46,91.59 0,137.05 3.65,24.42 30.98,50.34 56.43,54.65 47.09,7.2 91.6,7.2 138.69,0 25.45,-4.31 52.78,-30.24 56.43,-54.65 6.46,-45.46 6.46,-91.6 0,-137.05 z M 450.22,581.3 c -6.2,15.16 -25.02,24.8 -40.68,24.87 -22.4,0.11 -44.8,0.13 -67.21,0.14 v -30.58 c 0,27.01 -23.1,30.58 -23.17,30.59 -2.32,0.59 -41.38,0.33 -44.37,0 4.31,-22.05 7.19,-44.44 7.08,-66.2 -0.03,-5.85 0.11,-13.2 3.99,-17.64 l -21.66,0.09 v -49.26 l 24.59,0.05 c 38.54,-0.03 77.09,-0.19 115.63,0.25 12.25,0.14 23.54,4.34 32.24,13.72 9.22,9.95 7.96,28.38 -2.13,37.26 -7,6.17 -16.22,8.34 -24.9,11.05 4.77,1.42 7.26,2.52 10.73,3.52 11.45,3.28 24,11.06 29.15,22.13 2.73,5.84 3.58,12.99 0.71,20.01 z"
   id="path16" />
	</g>
	<g
   id="g50">
		<g
   id="g32">
			<g
   id="g22">
				<polygon
   class="st1"
   points="741.79,545.63 741.79,530.62 719.44,530.62 719.44,462.64 745.43,462.64 745.43,447.63 704.44,447.65 704.44,630.15 745.99,630.15 745.99,615.14 719.44,615.14 719.44,545.63 "
   id="polygon20" />
			</g>
			<g
   id="g26">
				<polygon
   class="st1"
   points="585.57,462.43 602.31,462.43 602.31,630.15 617.31,630.15 617.31,462.43 634.04,462.43 634.04,447.42 585.57,447.42 "
   id="polygon24" />
			</g>
			<g
   id="g30">
				<polygon
   class="st1"
   points="659.44,447.42 644.43,447.42 644.43,630.15 659.44,630.15 659.44,541.73 673.86,541.73 673.86,630.15 688.87,630.15 688.87,447.42 673.86,447.42 673.86,526.73 659.44,526.73 "
   id="polygon28" />
			</g>
		</g>
		<g
   id="g36">
			<path
   class="st1"
   d="m 1233.65,629.48 c -7.96,-4.62 -8.94,-36.93 -8.94,-36.93 v -9.97 c 0,-16.83 -12.51,-30.85 -28.69,-33.3 18.69,-6.67 32.17,-24.58 32.17,-45.5 v -8.04 c 0,-26.56 -21.73,-48.29 -48.29,-48.29 l -147.08,-0.42 c 0,0 0,80.18 0,99.54 0,56.88 -8.44,84.51 -8.44,84.51 h 84.98 v -63 h 21.21 c 15.81,0 28.75,12.94 28.75,28.75 0,0.44 -0.05,0.88 -0.07,1.31 h 0.07 v 31.88 h 57.82 16.37 c 0.3,0.01 0.41,-0.38 0.14,-0.54 z m -82.36,-100.1 h -41.93 V 506.9 h 41.93 c 6.18,0 11.24,5.06 11.24,11.24 0,6.18 -5.06,11.24 -11.24,11.24 z"
   id="path34" />
		</g>
		<g
   id="g40">
			<path
   class="st1"
   d="m 1019.19,569.41 c -7.12,-15.3 -24.84,-26.82 -40.66,-31.35 -4.8,-1.37 -8.24,-2.9 -14.84,-4.86 12,-3.75 24.74,-6.75 34.42,-15.28 13.94,-12.28 15.69,-37.76 2.94,-51.51 -12.02,-12.97 -27.62,-18.77 -44.56,-18.96 -53.27,-0.61 -193.83,-0.41 -193.83,-0.41 v 68.08 l 29.94,-0.13 c -5.36,6.15 -5.55,16.3 -5.51,24.38 0.16,30.08 -3.83,61.04 -9.79,91.51 4.13,0.46 7.29,-0.01 10.09,-0.01 17.08,0 34.15,0.01 51.23,0.01 0.09,-0.01 32.03,-4.94 32.03,-42.28 v 42.27 c 30.96,-0.01 61.93,-0.05 92.89,-0.2 21.65,-0.1 47.66,-13.42 56.23,-34.38 3.98,-9.7 3.17,-18.82 -0.58,-26.88 z M 874.03,524.22 v -13.57 -7.41 h 42.68 c 6.18,0 11.24,5.06 11.24,11.24 0,6.18 -5.06,11.24 -11.24,11.24 h -42.68 z m 63.7,35.42 c 0,6.18 -5.06,11.24 -11.24,11.24 h -52.47 v -4.97 -17.51 h 52.47 0.59 c 1.59,0 3.07,0.43 4.35,1.17 3.73,1.84 6.3,5.66 6.3,10.07 z"
   id="path38" />
		</g>
		<g
   id="g44">
			<path
   class="st1"
   d="m 1544.28,639.85 c 0,0 57.9,2.48 78.23,-40.05 0,0 -2.8,17.51 -5,30.55 0.04,-0.02 0.09,-0.04 0.13,-0.06 l -0.69,0.79 h 75.57 c 0,0 -4.12,-26.32 -4.12,-52.81 0,-26.49 4.12,-49.05 4.12,-49.05 l -66.85,-1.17 54.02,-30.15 v 0 c -24.32,-36.81 -41.27,-57.79 -118.55,-57.79 v 0 c -72.05,0 -111.81,46.79 -111.81,96.21 v 0 c 0,72.26 39.68,103.53 94.95,103.53 m 34.74,-54.17 c -18.96,0 -31.35,-16.64 -31.35,-37.16 0,-20.53 12.39,-37.16 31.35,-37.16 16.03,0 27.71,3.1 30.93,16.47 l -30.93,-0.56 4.59,45.98 27.82,0.71 c -3.69,6.99 -12.67,11.72 -32.41,11.72 z"
   id="path42" />
		</g>
		<g
   id="g48">
			<path
   class="st1"
   d="m 1412.58,452.5 c -1.49,-7.25 -4.96,-6.17 -12.36,-6.28 l -122.27,0.18 -37.71,183.62 h 75.68 l 3.56,-19.07 h 37.26 14.61 10.86 c 0,0 -10.12,3.97 -8.82,10.89 l 1.53,8.17 h 75.68 z m -83.17,111.71 16.01,-78.5 16.01,78.5 z"
   id="path46" />
		</g>
	</g>
</g>
</svg>
