<?xml version="1.0" encoding="utf-8"?>
<!-- Generator: Adobe Illustrator 23.0.5, SVG Export Plug-In . SVG Version: 6.00 Build 0)  -->
<svg version="1.1" id="Layer_1" xmlns="http://www.w3.org/2000/svg" xmlns:xlink="http://www.w3.org/1999/xlink" x="0px" y="0px"
	 viewBox="0 0 839.3 205.3" style="enable-background:new 0 0 839.3 205.3;" xml:space="preserve">
<style type="text/css">
	.st0{fill:#221F20;}
</style>
<path class="st0" d="M179.7,5.2c22.2,0,47.1,0.3,62.3,19.7c9.1,11.6,10,23.8,10,29.4s-1.1,19.7-13,31c-5.3,5-10,7.5-12.5,8.6
	c1.4,0.6,9.1,3.3,14.4,6.9c8,5,20.5,17.5,20.5,41c0,17.7-6.1,28.3-10.2,34.1c-19.1,26.6-53.7,24.9-61.8,24.9H88.9V5.2H179.7z
	 M139,81.9h36.3c8.3,0,17.2-0.3,23-7.2c1.7-1.9,4.2-5.3,4.2-11.4c0-1.9-0.3-7.2-3.6-11.6c-6.1-7.8-15.8-7.8-24.4-7.8H139V81.9z
	 M139,160.3h40.4c15.8,0,23.5-2.8,27.4-10.2c2.2-3.9,3-8,3-12.2c0-3.3-0.8-13-10-18.3c-7.2-4.2-13.6-3.9-21.6-4.2h-39.3v44.9H139z"
	/>
<path class="st0" d="M376.9,5.2c4.4,0,8.9,0,13.3,0.3c27.7,1.7,41,12.5,48.5,22.7c10.2,13.8,10.8,26.9,10.8,33.5
	c0,2.8,0,7.5-1.7,13.8c-1.7,6.6-8.3,26-28.5,34.1c14.4,4.2,21.1,15.2,23.3,19.7c6.6,13.8,6.6,34.9,8.3,49.3
	c1.7,13,1.9,15.2,6.1,22.2h-52.6c-0.8-1.7-1.7-3.3-2.2-6.4c-1.4-5.3-2.5-19.4-2.8-24.7c-0.3-4.2-0.6-8.3-1.4-12.5
	c-1.1-8.6-3.9-14.7-5.5-17.5c-6.9-11.4-19.1-11.6-30.7-11.9h-29.4v72.8h-51V5.2H376.9z M332.3,91.6h36.3
	c10.5-0.3,21.9-0.6,27.7-11.1c2.8-5.3,2.8-10.5,2.8-12.7c0-5-0.8-9.1-3.6-13c-6.6-9.7-17.7-10-28-10.2h-35.2V91.6z"/>
<path class="st0" d="M659.9,200.7h-52.4L595.3,165H528l-12.5,35.7h-51.7L536.4,5.1h51.2L659.9,200.7z M562.1,60.3l-22.4,67.9h44
	L562.1,60.3z"/>
<path class="st0" d="M839.3,200.7h-32.7l-3-21.1c-3,3.3-4.4,5.3-7.8,8c-7.8,6.6-24.4,17.7-50.7,17.7c-8.9,0-33.8-1.7-55.1-18.3
	c-15-11.9-36.3-37.7-36.3-83.9c0-23.3,6.4-47.1,20.5-65.9C685,22.8,697.5,15,703.3,11.7c4.4-2.2,12.5-6.1,24.1-8.9
	C739.3,0.3,746.8,0,752.3,0c9.1,0,29.1,0.8,49.6,14.7C823,28.8,831,47.9,833.8,56.8c1.1,2.8,2.2,7.5,2.8,14.4H787
	c-0.8-4.2-3.9-16.1-15.8-22.7c-3.3-1.9-10.8-5-21.1-5c-4.2,0-13.6,0.6-23,7.2c-11.9,8-21.6,22.7-21.6,52.6c0,5.3-1.1,36.3,19.4,52.1
	c7.8,6.4,18,8.9,27.7,8.9c16.3,0,26-7.2,30.5-11.9c3-3.3,8-10.2,9.7-21.6h-34.9V94h81.4L839.3,200.7L839.3,200.7z"/>
<g>
	<path class="st0" d="M15.8,140.4v20.9h54.7v18.6H15.8v20.9H0v-60.3h15.8V140.4z"/>
	<path class="st0" d="M70.5,73v18.5H41.3v23.1h29.2v18.6H0v-18.6h25.2V91.5H0V73H70.5z"/>
	<path class="st0" d="M14.9,6.1v37.2H27v-34h14.3v34h13.8V5.2h15.5v56.4H0.1V6.1H14.9z"/>
</g>
</svg>
